<svg width="24" height="24" viewBox="0 0 24 24" fill="none" xmlns="http://www.w3.org/2000/svg">
<path d="M8.01493 7.50792C7.71207 7.53121 7.48543 7.79562 7.50873 8.09848C7.53203 8.40134 7.79643 8.62797 8.09929 8.60468L8.05711 8.05629L8.01493 7.50792ZM15.9363 7.4502L16.4847 7.49239C16.497 7.3323 16.4387 7.17483 16.3252 7.06129C16.2117 6.94776 16.0542 6.88951 15.8941 6.90182L15.9363 7.4502ZM14.7818 15.2872C14.7585 15.5901 14.9852 15.8545 15.288 15.8778C15.5909 15.9011 15.8553 15.6744 15.8786 15.3716L15.3302 15.3294L14.7818 15.2872ZM7.06211 15.5466C6.84732 15.7614 6.84732 16.1096 7.06211 16.3244C7.2769 16.5392 7.62514 16.5392 7.83993 16.3244L7.45102 15.9355L7.06211 15.5466ZM3.81447 19.572L3.42556 19.9609C7.99197 24.5273 15.3954 24.5273 19.9618 19.9609L19.5728 19.572L19.1839 19.1831C15.0471 23.32 8.34021 23.32 4.20338 19.1831L3.81447 19.572ZM19.5728 19.572L19.9618 19.9609C24.5281 15.3946 24.5282 7.99115 19.9618 3.42475L19.5728 3.81365L19.1839 4.20256C23.3208 8.33939 23.3207 15.0464 19.1839 19.1831L19.5728 19.572ZM19.5728 3.81365L19.9618 3.42475C15.3954 -1.1416 7.99191 -1.1416 3.42556 3.42475L3.81447 3.81365L4.20338 4.20256C8.34015 0.0657959 15.0472 0.0657959 19.1839 4.20256L19.5728 3.81365ZM3.81447 3.81365L3.42556 3.42475C-1.14084 7.99115 -1.14078 15.3946 3.42556 19.9609L3.81447 19.572L4.20338 19.1831C0.0666103 15.0464 0.0665537 8.33939 4.20338 4.20256L3.81447 3.81365ZM8.05711 8.05629L8.09929 8.60468L15.9785 7.99858L15.9363 7.4502L15.8941 6.90182L8.01493 7.50792L8.05711 8.05629ZM15.9363 7.4502L15.3879 7.40802L14.7818 15.2872L15.3302 15.3294L15.8786 15.3716L16.4847 7.49239L15.9363 7.4502ZM15.9363 7.4502L15.5474 7.06129L7.06211 15.5466L7.45102 15.9355L7.83993 16.3244L16.3252 7.83911L15.9363 7.4502Z" fill="#191914"/>
</svg>
