<svg width="32" height="40" viewBox="0 0 32 40" fill="none" xmlns="http://www.w3.org/2000/svg">
<g clip-path="url(#clip0_737_4029)">
<path d="M32 0H0V2.66667H32V0Z" fill="#2A2D2D"/>
<path d="M2.66667 0H0V26.6667H2.66667V0Z" fill="#2A2D2D"/>
<path d="M32.0007 0H29.334V26.6667H32.0007V0Z" fill="#2A2D2D"/>
<path d="M32 24H0V26.6667H32V24Z" fill="#2A2D2D"/>
<path d="M21.3327 24H10.666V32H21.3327V24Z" fill="#2A2D2D"/>
<path d="M29.3327 29.3333H2.66602V32H29.3327V29.3333Z" fill="#2A2D2D"/>
<path d="M5.33268 29.3333H2.66602V40H5.33268V29.3333Z" fill="#2A2D2D"/>
<path d="M29.3327 29.3333H26.666V40H29.3327V29.3333Z" fill="#2A2D2D"/>
<path d="M29.3327 37.3333H2.66602V40H29.3327V37.3333Z" fill="#2A2D2D"/>
<path d="M5.33333 32H0V40H5.33333V32Z" fill="#2A2D2D"/>
<path d="M31.9993 32H26.666V40H31.9993V32Z" fill="#2A2D2D"/>
<path d="M31.9993 32H26.666V40H31.9993V32Z" fill="#2A2D2D"/>
<path d="M7.99935 29.3333H2.66602V34.6666H7.99935V29.3333Z" fill="#2A2D2D"/>
<path d="M13.3327 29.3333H10.666V34.6666H13.3327V29.3333Z" fill="#2A2D2D"/>
<path d="M18.6667 29.3333H16V34.6666H18.6667V29.3333Z" fill="#2A2D2D"/>
<path d="M24.0007 29.3333H21.334V34.6666H24.0007V29.3333Z" fill="#2A2D2D"/>
<path d="M29.3333 34.6667H24V40H29.3333V34.6667Z" fill="#2A2D2D"/>
<path d="M21.3327 34.6667H18.666V40H21.3327V34.6667Z" fill="#2A2D2D"/>
<path d="M16.0007 34.6667H13.334V40H16.0007V34.6667Z" fill="#2A2D2D"/>
<path d="M10.6667 34.6667H8V40H10.6667V34.6667Z" fill="#2A2D2D"/>
<path d="M26.6673 5.33331H5.33398V21.3333H26.6673V5.33331Z" fill="#2A2D2D"/>
<path d="M8.00065 8H5.33398V10.6667H8.00065V8Z" fill="#3DC06C"/>
<path d="M13.3327 8H10.666V10.6667H13.3327V8Z" fill="#3DC06C"/>
<path d="M18.6667 8H16V10.6667H18.6667V8Z" fill="#3DC06C"/>
<path d="M13.3333 13.3333H8V16H13.3333V13.3333Z" fill="#3DC06C"/>
<path d="M21.3333 13.3333H16V16H21.3333V13.3333Z" fill="#3DC06C"/>
</g>
<defs>
<clipPath id="clip0_737_4029">
<rect width="32" height="40" fill="white"/>
</clipPath>
</defs>
</svg>
