<svg width="24" height="24" viewBox="0 0 24 24" fill="none" xmlns="http://www.w3.org/2000/svg">
<g clip-path="url(#clip0_738_6276)">
<path d="M3.65152 22.9371C5.07166 22.9371 6.22293 21.7858 6.22293 20.3657C6.22293 18.9456 5.07166 17.7943 3.65152 17.7943C2.23135 17.7943 1.08008 18.9456 1.08008 20.3657C1.08008 21.7858 2.23135 22.9371 3.65152 22.9371Z" fill="#191914" fill-opacity="0.1"/>
<path d="M3.65152 22.9371C5.07166 22.9371 6.22293 21.7858 6.22293 20.3657C6.22293 18.9456 5.07166 17.7943 3.65152 17.7943C2.23135 17.7943 1.08008 18.9456 1.08008 20.3657C1.08008 21.7858 2.23135 22.9371 3.65152 22.9371Z" stroke="#191914" stroke-width="1.1" stroke-linecap="round" stroke-linejoin="round"/>
<path d="M22.9369 20.7771C22.9369 18.1882 22.4269 15.6246 21.4363 13.2328C20.4456 10.8409 18.9934 8.66766 17.1627 6.83702C15.3321 5.00637 13.1588 3.55423 10.767 2.5635C8.37515 1.57276 5.81159 1.06284 3.22266 1.06284" stroke="#191914" stroke-width="1.1" stroke-linecap="round" stroke-linejoin="round"/>
<path d="M3.63477 9.22284C5.09806 9.22284 6.54703 9.51106 7.89895 10.0711C9.25085 10.631 10.4792 11.4518 11.5139 12.4865C12.5487 13.5212 13.3694 14.7496 13.9294 16.1015C14.4894 17.4535 14.7776 18.9024 14.7776 20.3657" stroke="#191914" stroke-width="1.1" stroke-linecap="round" stroke-linejoin="round"/>
</g>
<defs>
<clipPath id="clip0_738_6276">
<rect width="24" height="24" fill="white"/>
</clipPath>
</defs>
</svg>
