<svg width="255" height="16" viewBox="0 0 255 16" fill="none" xmlns="http://www.w3.org/2000/svg">
<path d="M12.3509 11.1565C12.3509 13.473 10.4221 15.3536 8.1017 15.3536H0V0.646535H7.09518C9.32638 0.646535 11.1659 2.4439 11.1659 4.66734C11.1659 5.74968 10.7295 6.72427 10.0503 7.43441C11.4088 8.12985 12.3509 9.55501 12.3509 11.1565ZM5.21107 5.77417V6.96425H6.69853C7.05056 6.96425 7.31335 6.70468 7.31335 6.38145C7.31335 6.05822 7.05056 5.77417 6.69853 5.77417H5.21107ZM7.5563 9.62357C7.5563 9.30034 7.29351 9.01629 6.96627 9.01629H5.21602V10.2064H6.96627C7.29351 10.2064 7.5563 9.9468 7.5563 9.62357Z" fill="#191914"/>
<path d="M22.426 13.4288H18.7917L17.7604 15.3535H11.7609L20.6064 0L29.4518 15.3535H23.4524L22.426 13.4288ZM21.3501 11.4405L20.6064 10.0349L19.8378 11.4405H21.3501Z" fill="#191914"/>
<path d="M42.5955 11.1565C42.5955 13.473 40.6668 15.3536 38.3463 15.3536H30.2446V0.646535H37.3398C39.571 0.646535 41.4105 2.4439 41.4105 4.66734C41.4105 5.74968 40.9742 6.72427 40.2949 7.43441C41.6534 8.12985 42.5955 9.55501 42.5955 11.1565ZM35.4557 5.77417V6.96425H36.9432C37.2952 6.96425 37.558 6.70468 37.558 6.38145C37.558 6.05822 37.2952 5.77417 36.9432 5.77417H35.4557ZM37.8009 9.62357C37.8009 9.30034 37.5381 9.01629 37.2109 9.01629H35.4606V10.2064H37.2109C37.5381 10.2064 37.8009 9.9468 37.8009 9.62357Z" fill="#191914"/>
<path d="M43.2404 7.99755C43.2404 3.80043 46.6566 0.426072 50.9058 0.426072C55.1549 0.426072 58.5711 3.80043 58.5711 7.99755C58.5711 12.1947 55.15 15.569 50.9058 15.569C46.6566 15.569 43.2404 12.1947 43.2404 7.99755ZM53.3799 7.99755C53.3799 6.63605 52.2841 5.55371 50.9058 5.55371C49.5472 5.55371 48.4515 6.63605 48.4515 7.99755C48.4515 9.33945 49.5472 10.4218 50.9058 10.4218C52.2841 10.4218 53.3799 9.33945 53.3799 7.99755Z" fill="#191914"/>
<path d="M59.513 7.99755C59.513 3.80043 62.9292 0.426072 67.1783 0.426072C71.4275 0.426072 74.8437 3.80043 74.8437 7.99755C74.8437 12.1947 71.4275 15.569 67.1783 15.569C62.9292 15.569 59.513 12.1947 59.513 7.99755ZM69.6525 7.99755C69.6525 6.63605 68.5567 5.55371 67.1783 5.55371C65.8198 5.55371 64.724 6.63605 64.724 7.99755C64.724 9.33945 65.8198 10.4218 67.1783 10.4218C68.5567 10.4218 69.6525 9.33945 69.6525 7.99755Z" fill="#191914"/>
<path d="M89.9517 16L81.1508 9.68227V15.3486H75.9398V0L84.7654 6.33731V0.646465H89.9566V16H89.9517Z" fill="#191914"/>
<path d="M114.544 5.77417H109.576V15.3536H104.365V5.77417H99.3723V0.646535H114.544V5.77417Z" fill="#191914"/>
<path d="M115.209 7.99755C115.209 3.80043 118.625 0.426072 122.874 0.426072C127.123 0.426072 130.54 3.80043 130.54 7.99755C130.54 12.1947 127.123 15.569 122.874 15.569C118.625 15.569 115.209 12.1947 115.209 7.99755ZM125.348 7.99755C125.348 6.63605 124.253 5.55371 122.874 5.55371C121.516 5.55371 120.42 6.63605 120.42 7.99755C120.42 9.33945 121.516 10.4218 122.874 10.4218C124.253 10.4218 125.348 9.33945 125.348 7.99755Z" fill="#191914"/>
<path d="M154.691 5.77417H149.723V15.3536H144.512V5.77417H139.519V0.646535H154.691V5.77417Z" fill="#191914"/>
<path d="M170.349 0.646535V15.3536H165.138V10.4023H161.087V15.3536H155.876V0.646535H161.087V5.27463H165.138V0.646535H170.349Z" fill="#191914"/>
<path d="M176.998 5.77422V6.9643H180.85V9.02123H176.998V10.2113H182.318V15.3585H171.787V0.626991H182.318V5.77422H176.998Z" fill="#191914"/>
<path d="M207.238 0V15.3535H202.027V12.2388L199.379 15.3535L196.731 12.2388V15.3535H191.52V0L199.379 8.06611L207.238 0Z" fill="#191914"/>
<path d="M208.334 7.99755C208.334 3.80043 211.75 0.426072 215.999 0.426072C220.248 0.426072 223.665 3.80043 223.665 7.99755C223.665 12.1947 220.248 15.569 215.999 15.569C211.75 15.569 208.334 12.1947 208.334 7.99755ZM218.473 7.99755C218.473 6.63605 217.378 5.55371 215.999 5.55371C214.641 5.55371 213.545 6.63605 213.545 7.99755C213.545 9.33945 214.641 10.4218 215.999 10.4218C217.378 10.4218 218.473 9.33945 218.473 7.99755Z" fill="#191914"/>
<path d="M224.606 7.99755C224.606 3.80043 228.022 0.426072 232.272 0.426072C236.521 0.426072 239.937 3.80043 239.937 7.99755C239.937 12.1947 236.521 15.569 232.272 15.569C228.022 15.569 224.606 12.1947 224.606 7.99755ZM234.746 7.99755C234.746 6.63605 233.65 5.55371 232.272 5.55371C230.913 5.55371 229.817 6.63605 229.817 7.99755C229.817 9.33945 230.913 10.4218 232.272 10.4218C233.65 10.4218 234.746 9.33945 234.746 7.99755Z" fill="#191914"/>
<path d="M254.995 16L246.194 9.68227V15.3486H240.983V0L249.809 6.33731V0.646465H255V16H254.995Z" fill="#191914"/>
</svg>
