<svg width="167" height="32" viewBox="0 0 167 32" fill="none" xmlns="http://www.w3.org/2000/svg">
<path d="M73.6919 16.7366C73.6919 10.6399 69.8522 9.82145 67.1492 9.82145C65.0679 9.82145 61.8227 10.5063 59.3781 13.0502V10.3543H52.7986V13.6265C52.7986 13.6649 52.7986 13.6983 52.7986 13.7401V28.0731C52.7986 28.1132 52.7986 28.1466 52.7986 28.1867V31.4555H59.3766V15.1715C60.5303 13.8352 62.8736 12.2952 65.0086 12.2952C67.0362 12.2952 67.1186 13.7567 67.1186 16.0952V31.4538H73.6919V16.7366Z" fill="#6B0262"/>
<path d="M38.9408 9.82145C31.7392 9.82145 27.5058 14.6654 27.5058 20.904C27.5058 27.1427 32.0247 31.9883 38.9408 31.9883C45.857 31.9883 50.3742 27.1444 50.3742 20.904C50.3742 14.6637 46.1408 9.82145 38.9408 9.82145ZM38.9408 30.6604C35.2953 30.6604 34.3475 25.89 34.3475 20.904C34.3475 15.9181 35.2953 11.1494 38.9408 11.1494C42.5864 11.1494 43.5307 15.9198 43.5307 20.904C43.5307 25.8883 42.5864 30.6604 38.9408 30.6604Z" fill="#6B0262"/>
<path d="M165.851 24.3416C164.478 27.0224 162.228 29.0502 159.301 29.0502C154.401 29.0502 152.099 25.2669 151.92 20.3261H166.819V19.658C166.819 13.8119 163.179 9.82145 156.876 9.82145C150.054 9.82145 145.257 14.4984 145.257 21.1713C145.257 27.9812 150.465 31.9883 156.51 31.9883C161.868 31.9883 165 29.1487 167 24.8661L165.851 24.3416ZM156.898 11.146C159.412 11.146 161.02 13.7668 161.02 17.5617V18.898H151.97C152.144 14.3631 154.05 11.1494 156.891 11.1494L156.898 11.146Z" fill="#6B0262"/>
<path d="M106.073 10.3092V5.51041C106.073 3.04667 107.242 1.42813 109.344 1.42813C111.808 1.42813 112.263 3.31893 112.263 6.25534V7.59159H118.199V6.25534C118.199 2.72764 115.665 0 109.921 0C105.468 0 99.4965 3.01827 99.4965 9.01973V10.3176H96.3459V11.7424H99.4965V31.4171H106.073V11.734H111.781V31.4088H118.451V10.3092H106.073Z" fill="#6B0262"/>
<path d="M88.5833 25.9618C88.3638 27.3298 87.0362 29.2373 85.3028 29.2373C83.5694 29.2373 82.3819 27.9011 82.3819 25.6895C82.3819 23.5599 83.4425 21.5137 86.5158 20.2276C87.183 19.9734 87.8762 19.7914 88.5833 19.6847V25.9618ZM86.4432 9.82145C80.7196 9.82145 76.9827 12.9834 76.9827 16.8368V17.7889H82.6249V16.4526C82.6249 12.8514 83.7975 11.1611 85.9633 11.1611C87.7524 11.1611 88.592 12.4856 88.592 15.2901V18.1881C87.2065 18.4395 85.8354 18.7606 84.4831 19.1502C79.4323 20.6836 76.3477 22.7381 76.3477 26.4779C76.3477 29.9438 78.9575 32 82.4289 32C85.1186 32 87.6307 30.8057 88.5966 28.9416V31.4655H95.17V17.5718C95.1567 11.3081 90.7455 9.82145 86.4432 9.82145Z" fill="#6B0262"/>
<path d="M18.0859 14.6287C21.8903 13.9606 23.9884 11.1577 23.9884 7.86555C23.9884 3.32395 19.5607 0.469367 12.67 0.469367H3.48994e-08V9.18509C-0.000108943 10.1627 0.25501 11.1238 0.740668 11.9753C1.22632 12.8268 1.92607 13.54 2.77218 14.0457L4.1794 14.8809L2.77218 15.7161C1.92607 16.2218 1.22632 16.935 0.740668 17.7865C0.25501 18.638 -0.000108943 19.5991 3.48994e-08 20.5767V31.4338H13.7444C21.4883 31.4338 25.5105 27.846 25.5105 22.2838C25.519 18.2967 22.0035 14.8876 18.0859 14.6287ZM7.34181 2.06118H11.8641C15.3289 2.06118 17.0572 4.03718 17.0572 8.13115C17.0572 11.3348 16.3003 14.0925 11.9892 14.0925H9.95014C9.25791 14.0925 8.59407 13.8206 8.1046 13.3367C7.61512 12.8527 7.34012 12.1963 7.34012 11.5118L7.34181 2.06118ZM11.4283 29.8637H7.34181V18.2633C7.34181 17.5792 7.61655 16.923 8.10567 16.4391C8.59479 15.9552 9.25821 15.6831 9.95014 15.6826H12.3C16.7125 15.6826 18.5843 18.2332 18.5843 22.5059C18.586 26.645 16.2463 29.8637 11.4283 29.8637Z" fill="#6B0262"/>
<path d="M136.503 31.4538H143.03V0.477694H136.457V11.3849C135.401 10.3543 133.755 9.82145 131.596 9.82145C125.44 9.82145 121.242 14.1392 121.242 20.904C121.242 27.3782 125.075 31.9883 130.783 31.9883C133.992 31.9883 136.02 29.9722 136.503 28.93V31.4538ZM132.765 29.2373C129.94 29.2373 128.088 26.8087 128.088 20.904C128.088 14.9995 130.011 11.6655 133.074 11.6655C134.824 11.6655 136.162 12.8147 136.733 13.8035V24.7825C136.728 26.2223 135.288 29.2373 132.765 29.2373Z" fill="#6B0262"/>
</svg>
