<svg width="185" height="24" viewBox="0 0 185 24" fill="none" xmlns="http://www.w3.org/2000/svg">
<path d="M33.904 0.686753H29.4484V23.6171H45.7629V19.8187H33.904V0.686753Z" fill="#191914"/>
<path d="M62.0284 11.8268L55.5137 0.686753H50.6782L59.9264 16.0142V23.6171H64.1612V16.0142L73.4155 0.686753H68.58L62.0284 11.8268Z" fill="#191914"/>
<path d="M116.5 0.680704H112.038V23.6171H116.5V0.680704Z" fill="#191914"/>
<path d="M144.238 13.8385C144.238 17.6794 142.271 19.8856 138.839 19.8856C135.407 19.8856 133.47 17.6794 133.47 13.8385V0.680704H129.009V14.2153C129.009 19.9706 133.053 23.9939 138.814 23.9939C144.575 23.9939 148.675 19.9706 148.675 14.2153V0.680704H144.213L144.238 13.8385Z" fill="#191914"/>
<path d="M179.08 0.686753L172.522 18.2993L165.964 0.686753H160.075V23.6171H164.537V7.63332L170.567 23.6171H174.508L180.538 7.63332V23.6171H185V0.686753H179.08Z" fill="#191914"/>
<path d="M91.1457 9.33502C88.2715 8.6118 85.7833 7.98582 85.7833 6.29628C85.7833 4.80729 87.585 3.81058 90.2633 3.81058C93.205 3.81058 95.3133 5.02608 95.7791 6.99519L95.8281 7.22005L99.8178 5.22664L99.7566 5.0747C98.4879 1.96911 94.8782 0 90.3246 0C84.8701 0 81.346 2.59509 81.346 6.60623C81.346 11.1704 85.9181 12.3434 89.9569 13.3765C93.0212 14.1666 95.92 14.9081 95.92 17.0838C95.92 18.9071 94.0018 20.1651 91.152 20.1651C87.726 20.1651 85.2072 18.3419 85.0232 15.7832V15.528L80.8435 17.3877V17.5214C81.53 21.4596 85.4952 24 90.9558 24C96.7413 24 100.48 21.1618 100.48 16.7678C100.486 11.687 95.3072 10.3803 91.1457 9.33502Z" fill="#191914"/>
<path d="M0 0.686753H17.3318V4.49734H4.46167V10.2466H15.389V14.0572H4.46167V19.8005H17.3318V23.611H0V0.686753Z" fill="#191914"/>
</svg>
