<svg width="170" height="32" viewBox="0 0 170 32" fill="none" xmlns="http://www.w3.org/2000/svg">
<path d="M169.877 1.6998C170.181 0.915885 169.921 0.435945 169.093 0.435945H166.349C165.52 0.435945 165 0.87189 164.736 1.6558L161.251 12.3225C160.991 13.1504 160.683 13.1503 160.423 12.3664L157.026 1.6598C156.81 0.919885 156.198 0.439945 155.458 0.439945H152.585C151.801 0.439945 151.541 1.04785 151.801 1.7478L157.899 18.2017C158.247 19.0736 158.335 19.7255 158.335 20.6854V30.3042C158.335 31.0001 158.903 31.5241 159.599 31.5241H161.907C162.56 31.5241 163.172 30.9162 163.172 30.2602V20.6814C163.172 19.7256 163.304 19.0256 163.608 18.1978L169.877 1.6998ZM144.535 9.5788C144.535 13.1064 143.271 14.3662 139.614 14.3662H139.09C138.394 14.3662 137.826 13.8023 137.826 13.1024V6.14325C137.826 5.4473 138.39 4.8794 139.09 4.8794H139.614C143.271 4.8794 144.535 6.09925 144.535 9.5788ZM149.5 30.2602L145.624 18.4177C145.407 17.6778 145.58 17.3738 146.32 16.8499C148.452 15.3261 149.5 12.8024 149.5 9.31885C149.5 3.52755 146.408 0.439945 140.618 0.439945H134.261C133.609 0.439945 133.04 1.04785 133.04 1.7038V30.3042C133.04 31.0001 133.477 31.5241 134.217 31.5241H136.613C137.31 31.5241 137.834 31.0001 137.834 30.3042V20.0295C137.834 19.2016 138.27 18.8097 139.098 18.8097H139.534C140.49 18.8097 140.842 19.1576 141.146 20.0295L144.455 30.2602C144.715 31.0881 145.195 31.5241 146.112 31.5241H148.68C149.324 31.5201 149.717 30.9122 149.5 30.2602ZM123.442 21.5973C123.442 25.9927 122.486 27.5166 119.785 27.5166C116.997 27.5166 116.128 25.9927 116.128 21.5973V10.4507C116.128 6.01125 117.045 4.48745 119.785 4.48745C122.486 4.48745 123.442 6.01125 123.442 10.4507V21.5973ZM128.319 21.6373V10.3627C128.319 6.83515 127.795 4.7914 126.535 2.96365C125.187 1.04785 122.702 0.00400019 119.785 0.00400019C116.781 0.00400019 114.516 1.00385 113.08 2.96365C111.815 4.6594 111.295 6.83915 111.295 10.3627V21.6373C111.295 25.1649 111.775 27.1646 113.08 28.9963C114.388 30.9121 116.869 32 119.785 32C122.702 32 125.011 31.0001 126.535 28.9963C127.795 27.2966 128.319 25.1649 128.319 21.6373ZM109.115 4.0515V1.6558C109.115 0.95988 108.591 0.435945 107.894 0.435945H93.4826C92.8746 0.435945 92.2626 1.00385 92.2626 1.6558V4.0075C92.2626 4.6594 92.8306 5.27135 93.4826 5.27135H97.0116C97.5356 5.27135 98.2761 5.87925 98.2761 6.4912V30.3042C98.2761 30.9561 98.8441 31.5241 99.4961 31.5241H101.849C102.501 31.5241 103.113 30.9601 103.113 30.3042V6.5352C103.113 5.83925 103.681 5.27135 104.378 5.27135H107.906C108.595 5.27135 109.115 4.7474 109.115 4.0515ZM90.7381 24.121C90.7381 19.1576 87.5131 16.9819 84.0326 14.2382L81.9001 12.5385C79.5916 10.7107 78.6751 9.31485 78.6751 7.61905C78.6751 5.7913 80.0236 4.48345 81.7681 4.48345C83.5081 4.48345 84.7726 5.6153 85.5566 7.879C85.7731 8.53095 86.0811 8.8349 86.6011 8.8349C86.7331 8.8349 86.9491 8.7909 87.1251 8.7469L89.3016 8.095C89.8701 7.919 90.2621 7.52705 90.2621 6.96315C90.2621 6.04725 88.2576 0 81.8121 0C77.0666 0 73.6701 3.0916 73.6701 7.61905C73.6701 11.0146 75.4986 13.4103 78.0271 15.41L81.1636 17.8897C84.7766 20.7614 85.7371 22.0253 85.7371 23.985C85.7371 26.0728 84.3006 27.5126 82.2081 27.5126C79.9876 27.5126 78.3751 26.0327 77.6351 23.2011C77.4631 22.4612 77.1546 22.2013 76.6786 22.2013C76.4626 22.2013 76.1546 22.2892 75.8066 22.3772L74.0661 22.9011C73.4141 23.0731 72.9336 23.5091 72.9336 24.121C72.9336 25.2089 74.3261 32 82.2081 32C87.2971 32 90.7381 28.8204 90.7381 24.121ZM64.8716 9.5788C64.8716 13.1064 63.6076 14.3662 59.9506 14.3662H59.4266C58.7301 14.3662 58.1621 13.8023 58.1621 13.1024V6.14325C58.1621 5.4473 58.7301 4.8794 59.4266 4.8794H59.9506C63.6076 4.8794 64.8716 6.09925 64.8716 9.5788ZM69.8331 30.2602L65.9561 18.4177C65.7401 17.6778 65.9121 17.3738 66.6521 16.8499C68.7846 15.3261 69.8291 12.8024 69.8291 9.31885C69.8291 3.52755 66.7361 0.439945 60.9471 0.439945H54.5931C53.9411 0.439945 53.3731 1.04785 53.3731 1.7038V30.3042C53.3731 31.0001 53.8091 31.5241 54.5491 31.5241H56.9461C57.6421 31.5241 58.1661 31.0001 58.1661 30.3042V20.0295C58.1661 19.2016 58.6021 18.8097 59.4306 18.8097H59.8666C60.8266 18.8097 61.1711 19.1576 61.4791 20.0295L64.7876 30.2602C65.0481 31.0881 65.5281 31.5241 66.4441 31.5241H69.0126C69.6611 31.5201 70.0531 30.9122 69.8331 30.2602ZM47.7716 30.3442V1.6158C47.7716 1.00785 47.1635 0.439945 46.5515 0.439945H44.1547C43.4586 0.439945 42.9344 0.96388 42.9344 1.6598V30.3482C42.9344 31.0002 43.5426 31.5241 44.1547 31.5241H46.5075C47.1196 31.5201 47.7716 30.9562 47.7716 30.3442ZM32.0078 19.1136C32.1398 19.9415 31.7477 20.3335 30.9635 20.3335H28.4829C27.7868 20.3335 27.2186 19.9415 27.3947 19.2016L29.4432 7.79505C29.4872 7.3591 29.8352 7.44705 29.9233 7.75105L32.0078 19.1136ZM39.0175 30.2602L33.2681 1.7038C33.092 0.87589 32.6159 0.439945 31.7437 0.439945H27.6067C26.7785 0.439945 26.3024 0.831895 26.1704 1.6158L20.641 30.2602C20.509 30.9122 20.8571 31.5241 21.6013 31.5241H23.8658C24.606 31.5241 25.1701 31.0441 25.3462 30.3042L26.1744 26.0368C26.2624 25.4688 26.9145 24.7329 27.6107 24.7329H31.7477C32.5319 24.7329 33.096 25.2569 33.2721 26.0368L34.1443 30.2602C34.2763 31.0002 34.7524 31.5241 35.6247 31.5241H37.9332C38.6694 31.5201 39.1495 31.0401 39.0175 30.2602ZM16.46 30.3002V1.6598C16.46 1.09585 15.7638 0.439945 15.2397 0.439945H12.8431C12.275 0.439945 11.6228 1.09185 11.6228 1.7038V12.1065C11.6228 12.6304 10.8827 13.3703 10.3585 13.3703H6.00946C5.40131 13.3703 4.78916 12.7184 4.78916 12.1065V1.6998C4.78916 1.09185 4.093 0.435945 3.52485 0.435945H1.2203C0.568141 0.435945 0 1.04385 0 1.6998V30.3002C0 30.9082 0.652161 31.5201 1.2203 31.5201H3.52885C4.093 31.5201 4.79316 30.8682 4.79316 30.3002V19.2016C4.79316 18.5497 5.31731 17.8538 6.01346 17.8538H10.3665C11.0627 17.8538 11.6308 18.5497 11.6308 19.1576V30.3002C11.6308 30.9082 12.283 31.5201 12.8511 31.5201H15.2037C15.7198 31.5201 16.46 30.8242 16.46 30.3002Z" fill="#F85E11"/>
</svg>
