<svg width="108" height="32" viewBox="0 0 108 32" fill="none" xmlns="http://www.w3.org/2000/svg">
<path d="M14.3415 18.2946C14.0151 17.6437 13.3088 17.0983 12.8821 16.5021C12.3325 15.736 11.9294 14.8802 11.4808 14.054C11.0516 13.2626 10.4792 12.5448 9.96285 11.8084C9.90978 11.7322 9.8466 11.6492 9.75479 11.6348C9.67476 11.6213 9.59684 11.6645 9.52692 11.706C8.6816 12.2082 7.77773 12.9899 6.88902 13.382C6.43877 13.7195 5.94766 13.6276 5.74128 14.2611C5.72022 14.3259 5.70464 14.3954 5.71938 14.4623C5.73201 14.5177 5.76487 14.5664 5.79688 14.6139C6.23239 15.2512 6.63294 15.905 7.03433 16.5647C7.10846 16.6875 7.18511 16.8154 7.20323 16.9581C7.23861 17.2355 6.97452 17.4349 6.7694 17.5658C6.53733 17.714 6.13299 17.9694 5.85374 17.8216C5.71475 17.7479 5.6482 17.5891 5.57912 17.4472C5.32725 16.9247 4.87405 16.6062 4.56785 16.137C4.34799 15.8004 4.27723 15.31 3.75117 15.4261C3.3582 15.5124 2.87215 16.0693 2.47412 16.259C2.05883 16.4572 1.72272 16.7278 1.35166 16.9903C1.02818 17.2194 0.655432 17.3418 0.336172 17.5798C-0.395854 18.1248 0.241825 18.8692 0.609944 19.4057C0.737143 19.5912 0.864342 19.7767 0.992384 19.9622C1.47001 20.6587 2.04367 21.252 2.49097 21.9838C2.98924 22.7981 3.50477 23.6018 4.038 24.3932C4.84162 25.5849 5.41949 27.061 6.36338 28.129C6.6481 28.4513 6.9164 28.7608 7.36707 28.6012C7.87249 28.4212 8.25493 28.0159 8.68244 27.711C9.09689 27.415 9.52776 27.1436 9.95906 26.8743C10.2139 26.7151 10.7328 26.5461 10.8861 26.2751C11.1725 25.7691 10.6831 25.407 10.4047 25.0551C10.0412 24.5965 9.75352 24.0646 9.44142 23.5671C9.12637 23.0644 8.27009 22.1129 8.8606 21.54C8.89177 21.5078 8.92504 21.4764 8.95916 21.4481C8.99285 21.4201 9.02655 21.3888 9.05772 21.3558C9.07625 21.3443 9.09857 21.327 9.12342 21.3045C9.44437 21.0157 9.77163 21.1076 9.99318 21.4515C10.4708 22.1946 10.9497 22.9378 11.4282 23.6806C11.758 24.1938 12.1501 25.1339 12.9107 24.9806C13.2591 24.9103 13.5505 24.6791 13.8336 24.4627C14.4152 24.0197 17.134 23.0119 16.7145 22.0875C16.354 21.2931 14.609 18.8256 14.3424 18.2946H14.3415Z" fill="#719278"/>
<path d="M34.2945 19.6153C34.4175 19.0043 34.4903 18.3822 34.5573 17.7424C34.695 16.425 33.3401 16.1074 32.3604 15.6391C31.8528 15.3973 31.6216 14.5537 31.9232 13.9969C32.2749 13.3473 32.9151 12.9763 33.5351 12.6266C33.9356 12.4009 35.1705 11.9494 34.8555 11.3024C34.7081 10.9992 34.3993 10.688 34.2157 10.3839C33.8139 9.71909 32.8633 8.62529 31.9611 8.96152C31.8221 9.0136 31.7004 9.10295 31.5812 9.19188C30.933 9.67674 30.4048 10.3124 29.776 10.8218C29.5868 10.9759 29.0894 11.4616 28.8165 11.4244C27.9383 11.3033 28.6105 9.70638 28.6754 9.30833C28.8822 8.04007 27.1368 8.03711 26.3117 7.99137C25.2701 7.93336 23.7134 7.42775 23.8852 9.07924C23.9244 9.45612 23.9417 9.81775 23.9139 10.1976C23.8124 11.5836 23.7172 12.9539 23.6392 14.3416C23.558 15.797 23.4442 17.2558 23.1743 18.6901C23.117 18.9954 23.101 19.3079 23.1258 19.6175C23.1393 19.775 23.1654 19.9376 23.2534 20.0697C23.75 20.8142 24.6935 20.555 25.4373 20.5537C25.9882 20.5529 27.3545 21.2211 27.7391 20.5825C27.801 20.4796 27.8216 20.3577 27.8414 20.2387C27.8718 20.054 28.1658 17.758 28.2664 17.7898C29.0241 18.0532 29.4782 18.934 29.9832 19.501C30.5762 20.1675 31.3213 20.7481 32.1637 21.0619C32.5495 21.2054 33.6096 21.7547 33.8472 21.158C34.0493 20.6499 34.1896 20.137 34.2949 19.6166L34.2945 19.6153Z" fill="#719278"/>
<path d="M44.6628 11.0597C45.3317 11.1046 46.1669 11.1546 46.0427 12.007C46.0064 12.2497 45.9711 12.4927 45.9353 12.7354C45.8489 13.3269 45.7605 13.924 45.5427 14.48C45.5132 14.555 45.48 14.6316 45.4218 14.6871C45.3043 14.7993 45.119 14.7968 44.961 14.7595C44.5399 14.66 44.1199 14.5888 43.708 14.4478C43.3854 14.3373 43.0653 14.2014 42.7262 14.1747C42.2604 14.1379 41.53 14.4991 41.803 15.0233C42.2423 15.8673 43.7623 15.6064 44.5108 15.9016C44.6696 15.9638 44.8376 16.0498 44.9038 16.2082C45.1784 16.8704 44.571 18.7235 43.6962 18.4483C43.2586 18.3106 42.8197 18.1726 42.3817 18.0345C42.1126 17.9494 41.8333 17.8643 41.5541 17.9011C41.1695 17.9524 40.8305 18.2585 40.7378 18.6375C40.646 19.017 40.8064 19.4455 41.124 19.6699C41.3056 19.7978 41.5246 19.8588 41.7411 19.905C42.5051 20.0663 43.3336 20.0693 43.9932 20.4898C44.0934 20.5537 44.192 20.6312 44.2446 20.7388C44.3259 20.9077 44.2758 21.1076 44.2248 21.2884C44.0332 21.9638 43.8799 23.6026 43.3066 24.0858C43.0501 24.3022 42.6681 24.2247 42.3455 24.1362C40.2606 23.562 38.1808 22.9594 36.0875 22.4165C35.4814 22.259 34.7304 22.2916 34.5897 21.5581C34.4663 20.917 35.0412 19.7601 35.2139 19.1326C35.5066 18.071 35.7994 17.0085 36.0921 15.9473C36.2433 15.3977 36.3949 14.8476 36.5373 14.2958C36.6868 13.7191 36.8266 13.1398 36.9665 12.5605C37.1758 11.6941 37.2436 10.779 37.4702 9.94011C37.4938 9.85415 37.5245 9.76437 37.562 9.67036C37.5999 9.57678 37.6496 9.48701 37.7103 9.39935C37.8173 9.32524 37.9331 9.28798 38.0574 9.28756C38.6988 9.28459 39.3917 9.70085 40.0235 9.8372C40.8646 10.0184 41.7326 10.162 42.5502 10.4317C43.1103 10.6168 43.6495 10.8832 44.2286 11.0064C44.3726 11.0373 44.5184 11.0508 44.6637 11.0606L44.6628 11.0597Z" fill="#719278"/>
<path d="M62.8401 17.9625C63.3754 18.1311 63.8248 18.386 63.9448 18.8205C64.0817 19.318 63.5586 20.4423 63.4091 20.9293C63.0098 22.2272 62.5297 23.4993 62.1135 24.7921C61.964 25.282 61.4952 26.0557 61.7467 26.5757C62.2584 27.6335 65.0092 27.0593 64.6701 28.4567C64.5594 28.9107 64.2174 31.6598 63.351 31.3782C63.3211 31.3684 63.2937 31.3595 63.2672 31.3506C62.9251 31.2359 62.6766 31.1563 62.2875 31.0343C61.483 30.7823 55.6748 29.4353 55.8399 28.585C56.609 26.1963 57.3305 23.7923 58.0916 21.4006C58.5418 19.9858 58.6783 16.8946 60.8377 17.534C61.2935 17.6686 62.1405 17.7423 62.8401 17.9625Z" fill="#719278"/>
<path d="M71.8249 19.1059C72.0966 19.0229 72.367 18.934 72.6458 18.9628C73.3403 19.0352 73.5766 20.7265 73.6032 21.2893C73.6229 21.6924 73.4768 22.1277 73.1394 22.3466C72.829 22.5482 72.4297 22.5304 72.0624 22.4915C71.6947 22.4525 71.306 22.4042 70.9699 22.5592C70.6342 22.7142 70.4046 23.1643 70.6152 23.4692C70.6957 23.5857 70.8241 23.6602 70.9581 23.7047C71.6657 23.9397 72.423 23.4032 73.1601 23.5167C73.2696 23.5336 73.385 23.5696 73.4532 23.6572C73.513 23.7339 73.5273 23.8347 73.5395 23.9308C73.5943 24.3589 73.6495 24.787 73.7038 25.2147C73.7316 25.432 73.7548 25.6716 73.6335 25.8537C73.4292 26.1616 72.976 26.1146 72.61 26.0714C72.1458 26.0168 71.6463 26.0354 71.2525 26.2899C70.8591 26.5435 70.6283 27.0949 70.8557 27.5061C71.1712 28.076 72.0001 27.9829 72.6298 27.8228C73.2586 27.6632 74.1035 27.6115 74.3743 28.2035C74.4501 28.3699 74.4603 28.5579 74.4687 28.7409C74.4965 29.3451 74.5251 29.9482 74.5533 30.552C74.5677 30.8611 74.558 31.2232 74.3103 31.4065C74.1684 31.5116 73.9826 31.5281 73.8066 31.5412C71.763 31.6903 69.7202 31.8389 67.6766 31.988C67.3961 32.0087 67.089 32.0218 66.8595 31.8575C66.5668 31.6475 66.5171 31.2389 66.4926 30.8785C66.3701 29.0805 66.2479 27.2821 66.1258 25.484C66.0255 24.0079 66.1464 22.2878 65.7084 20.9187C65.4957 20.2535 65.4519 19.6517 66.2778 19.5611C67.5806 19.4176 68.8863 19.2744 70.1966 19.2719C70.6544 19.2706 71.119 19.2863 71.5642 19.1783C71.6514 19.1571 71.7377 19.1317 71.8236 19.1055L71.8249 19.1059Z" fill="#719278"/>
<path d="M78.2526 17.4142C78.3849 17.338 78.5175 17.2558 78.6532 17.1656C80.209 16.1315 82.3196 15.6429 84.1307 16.2184C85.3977 16.6206 86.4367 17.6827 86.8162 18.9624C87.0816 19.8588 86.9009 20.666 86.5985 21.5201C86.513 21.761 86.0652 22.5372 86.2362 22.7578C86.8465 23.5455 87.8427 21.8385 88.3085 22.0308C88.423 22.0786 88.4858 22.2006 88.5385 22.3136C88.9104 23.1068 89.7725 24.2929 89.8033 25.1809C89.8054 25.399 89.6496 25.584 89.4912 25.7339C88.6155 26.5614 87.3675 26.898 86.1865 26.7871C85.5455 26.7265 83.6548 25.7127 83.5575 26.9247C83.5065 27.5599 84.3101 28.0841 83.5368 28.6109C83.3001 28.7722 83.0171 28.8463 82.7442 28.934C81.7737 29.2457 80.9284 30.1193 79.9441 30.2501C79.7474 30.2764 79.5655 30.2133 79.3987 30.0608C78.6848 29.2071 78.3474 27.6005 77.8483 26.5677C77.1445 25.1127 76.4415 23.6577 75.7385 22.2031C75.4833 21.6738 74.4345 20.4428 74.5104 19.8698C74.5866 19.2956 75.5115 18.6782 75.9866 18.4601C76.7902 18.0917 77.5037 17.8474 78.2526 17.4151V17.4142ZM81.2035 19.6137C80.9015 19.5493 80.562 19.6297 80.3876 19.8817C80.1353 20.2471 80.3312 20.7434 80.5312 21.1402C80.8467 21.7657 81.1626 22.392 81.5194 22.9946C82.0025 23.8106 82.6094 23.9097 82.8987 22.9789C83.1586 22.1426 82.6203 21.042 82.1541 20.3839C81.9447 20.0888 81.6975 19.8012 81.3643 19.6632C81.3125 19.642 81.2591 19.6255 81.2035 19.6137Z" fill="#719278"/>
<path d="M95.1301 9.49294C91.7711 8.25813 89.0797 12.1053 86.5079 13.8359C85.1446 14.7536 85.9469 15.3761 86.7463 16.436C87.6098 17.5814 88.4829 18.7189 89.3392 19.8698C89.9364 20.6719 90.5261 21.479 91.0985 22.2992C91.4607 22.8184 91.9986 24.1709 92.5962 24.4106C93.3767 24.7227 94.1053 23.6932 94.6162 23.2503C96.9328 21.2439 102.548 18.3365 99.6979 14.6024C99.2969 14.0773 98.7485 13.6716 98.1382 13.426C97.4521 13.1499 96.4926 13.4489 96.6249 12.5351C96.6329 12.5287 96.7159 10.0748 95.1301 9.49294ZM94.8576 17.2101C95.061 17.4527 95.2093 17.761 95.2308 17.9638C95.256 18.2056 95.12 18.4838 94.8816 18.5279C94.6769 18.5651 94.4852 18.4267 94.3252 18.2933C94.1475 18.1429 93.9685 17.985 93.8589 17.7784C93.7503 17.5726 93.7225 17.307 93.8484 17.1106C94.1483 16.6435 94.5606 16.8556 94.8576 17.2101ZM92.226 13.7339C92.8283 14.4102 92.1266 15.3951 91.3525 14.5855C91.1604 14.3852 91.0521 14.0777 91.1617 13.822C91.3221 13.4493 91.8954 13.4019 92.1822 13.6877C92.1974 13.7026 92.2121 13.7182 92.226 13.7339Z" fill="#719278"/>
<path d="M53.5962 28.4334C53.819 27.8876 54.1341 27.4163 54.383 26.8916C54.5742 26.488 54.9954 25.7389 54.8611 25.271C54.7617 24.9242 54.3527 24.7929 54.0056 24.7002C53.5141 24.5685 53.0319 24.405 52.5614 24.2119C51.628 23.8287 50.6462 23.2003 50.4685 22.2026C50.1846 20.6083 52.01 20.1298 53.2281 20.0697C53.3637 20.0629 53.5032 20.0616 53.6316 20.1069C54.0545 20.2564 54.4833 20.4868 54.9146 20.6506C55.3025 20.798 55.6744 20.9869 56.0366 21.1893C56.168 21.2617 56.3133 21.3375 56.4595 21.307C56.665 21.2651 56.7733 21.0419 56.8503 20.8459C57.197 19.9668 57.5432 19.0872 57.8894 18.2073C57.9475 18.0595 58.0065 17.8969 57.9589 17.7449C57.8953 17.5433 57.6733 17.4451 57.4754 17.3722C56.4254 16.9831 55.3753 16.5947 54.3245 16.2052C53.6885 15.9697 51.1496 15.4713 48.3609 16.3826C47.019 16.8209 45.5145 18.9657 45.2672 20.3081C45.0322 21.5882 45.1864 22.9454 45.699 24.1404C45.9883 24.8154 46.404 25.44 46.9132 25.9689C47.1558 26.2208 47.4204 26.4533 47.7148 26.6413C47.9961 26.8205 48.3015 26.9568 48.606 27.0927C49.3195 27.4108 49.9862 27.8236 50.6892 28.162C51.3804 28.494 52.1141 28.6752 52.8288 28.9437C52.8971 28.9691 52.9674 28.9958 53.0407 28.9962C53.213 28.9992 53.3574 28.8645 53.4514 28.7201C53.5107 28.629 53.5571 28.5325 53.5975 28.4334H53.5962Z" fill="#719278"/>
<path d="M17.0813 9.09616C17.7936 8.83192 17.9764 8.58462 18.497 9.45187C18.8449 10.0316 18.9354 10.7261 19.1856 11.3452C19.6005 12.3712 19.9408 13.487 20.2811 14.5427C20.7823 16.0943 22.3171 18.19 22.0842 19.8465C21.853 21.4908 18.8887 21.6179 17.6226 22.0062C17.4912 22.0464 17.0948 21.0538 17.0755 20.9933C17.0295 20.8531 16.9958 20.7083 16.9748 20.5592C16.8211 19.4908 16.3203 17.9414 15.8494 16.9522C15.4438 16.0998 15.2092 15.2338 14.8962 14.3687C14.6081 13.5713 14.4009 12.7519 14.0795 11.9765C13.9018 11.5488 13.6209 10.8692 13.8053 10.4013C14.0644 9.74236 14.4948 9.92868 15.0626 9.74363C15.3852 9.63819 15.6316 9.4091 15.9644 9.30154C16.2933 9.19525 16.6311 9.25072 16.9461 9.14443C16.9933 9.12876 17.038 9.11267 17.0818 9.09658L17.0813 9.09616Z" fill="#719278"/>
<path fill-rule="evenodd" clip-rule="evenodd" d="M107.974 3.28714C108.091 2.11796 107.826 1.61701 106.981 1.32821C106.202 1.0627 105.399 1.04873 104.587 1.25919C103.175 1.62548 101.606 1.75125 100.191 1.79952C99.8162 1.81223 99.475 1.84991 99.1014 1.76776C98.9789 1.74066 97.5906 1.33372 97.6028 1.26046C97.6551 0.952603 97.7254 0.537612 97.7936 0.132785C97.2242 -0.0941897 97.2246 -0.0912248 97.1126 0.633738C96.7424 3.03306 96.3696 5.43196 95.9969 7.83086C95.9497 8.13278 95.5715 10.3881 95.5218 10.6795C95.9019 10.798 96.1262 10.6373 96.1944 10.1971C96.2344 9.94053 96.6046 7.7305 96.656 7.42603C96.803 7.49209 96.9041 7.53147 97.0005 7.58229C97.8134 8.01083 98.7236 8.17852 99.6216 8.31868C100.454 8.44869 101.369 8.71589 102.212 8.59054C102.873 8.4923 103.466 8.12601 104.143 8.11161C104.563 8.10272 104.991 8.2107 105.393 8.38263C105.702 8.51517 105.997 8.68497 106.261 8.86833C106.454 9.00172 106.659 9.17238 106.846 8.95472C107.07 8.69345 107.047 8.09298 107.09 7.77284C107.211 6.86918 107.451 5.99347 107.624 5.09954C107.728 4.56048 107.84 4.02142 107.932 3.48023C107.874 3.82281 107.958 3.44763 107.974 3.28714ZM104.237 6.93016C104.092 7.03264 103.93 7.11182 103.779 7.20625C103.55 7.34896 103.44 7.31763 103.349 7.06821C103.268 6.84801 103.147 6.65745 102.957 6.50839C102.87 6.44022 102.764 6.36653 102.727 6.27295C102.638 6.04598 102.455 5.99135 102.242 5.95917C102.177 5.949 102.114 5.9308 102.051 5.91386C101.82 5.85076 101.634 5.94943 101.496 6.10695C101.337 6.29031 101.167 6.44233 100.933 6.52703C100.76 6.59054 100.588 6.66084 100.42 6.73918C100.214 6.8353 100.038 6.95768 100.107 7.22235C100.12 7.27189 100.145 7.32059 100.143 7.36971C100.139 7.44339 100.117 7.51707 100.103 7.59076C100.036 7.56662 99.9367 7.56239 99.9059 7.51538C99.7829 7.32821 99.6759 7.13088 99.5791 6.92931C99.5652 6.90052 99.6262 6.81032 99.6734 6.78449C99.8309 6.69853 100.002 6.63543 100.16 6.55116C100.373 6.43768 100.593 6.32842 100.785 6.18572C100.911 6.09298 101.033 5.95705 101.082 5.81688C101.135 5.66232 101.073 5.47431 101.114 5.31254C101.164 5.11055 101.081 4.97166 100.975 4.82556C100.914 4.74087 100.86 4.6511 100.804 4.56302C100.72 4.43005 100.735 4.31233 100.864 4.20985C100.961 4.13321 101.055 4.05317 101.129 3.99177C101.065 3.85118 100.976 3.73219 100.96 3.60304C100.947 3.49844 101.022 3.38284 101.069 3.23505C101.112 3.21599 101.197 3.17746 101.287 3.13681C101.277 3.09954 101.267 3.0627 101.256 3.01951C101.448 3.11225 101.501 3.09573 101.6 2.92C101.62 2.88443 101.638 2.84801 101.658 2.81201C101.945 2.26872 102.32 2.21578 102.714 2.66889C102.754 2.7142 102.763 2.79592 102.761 2.86029C102.758 2.98055 102.73 3.09997 102.722 3.21981C102.713 3.36675 102.569 3.49167 102.411 3.50733C102.346 3.51369 102.285 3.57001 102.222 3.60388C102.258 3.65343 102.289 3.70806 102.33 3.75167C102.378 3.80206 102.436 3.84399 102.49 3.88845C102.611 3.98796 102.732 4.08705 102.901 4.22637C102.942 4.10357 103.015 3.99347 102.985 3.95154C102.903 3.83425 102.973 3.75802 103.034 3.69154C103.069 3.65428 103.164 3.63903 103.218 3.65555C103.323 3.6873 103.398 3.7775 103.351 3.88506C103.266 4.08112 103.166 4.27422 103.048 4.45334C103.018 4.49823 102.885 4.51051 102.813 4.4923C102.702 4.46308 102.602 4.39491 102.48 4.33435C102.347 4.61595 102.221 4.88527 102.091 5.16179C102.162 5.18932 102.226 5.25114 102.215 5.26512C102.245 5.31339 102.263 5.3803 102.308 5.40782C102.428 5.48193 102.559 5.54036 102.686 5.60304C102.879 5.69789 103.021 5.83001 103.096 6.03581C103.154 6.19207 103.235 6.34367 103.329 6.48129C103.51 6.74595 103.661 6.8641 104.014 6.72012C104.047 6.70657 104.085 6.68921 104.117 6.69429C104.186 6.70615 104.251 6.7324 104.317 6.75231C104.292 6.81371 104.284 6.89882 104.237 6.93143V6.93016Z" fill="#719278"/>
<path fill-rule="evenodd" clip-rule="evenodd" d="M101.329 4.85183C101.546 4.62358 101.58 4.40042 101.427 4.20902C101.059 4.35553 101.031 4.53254 101.329 4.85183Z" fill="#719278"/>
</svg>
