<svg width="65" height="48" viewBox="0 0 65 48" fill="none" xmlns="http://www.w3.org/2000/svg">
<path d="M24.2638 9.68953C23.9759 11.4412 25.4725 12.9348 27.2277 12.6475C28.2915 12.4737 29.1484 11.6185 29.3225 10.5568C29.6104 8.80507 28.1138 7.31147 26.3587 7.59884C25.2966 7.77263 24.438 8.62956 24.2638 9.68953Z" fill="#1F1F1F"/>
<path d="M30.7983 13.5045C30.75 13.4168 30.6655 13.3513 30.5689 13.3255C30.4724 13.2997 30.3672 13.3153 30.2914 13.3599L27.281 15.0015C27.1172 15.0944 27.0569 15.2957 27.1448 15.4627L27.6362 16.3953C27.6362 16.3953 28.2363 17.4037 28.2363 18.4722V33.4031C28.2363 35.0275 28.2241 36.1752 28.1293 36.9823C28.0897 37.3212 27.8035 37.5793 27.4604 37.5793H27.4534C27.4173 37.5793 27.3689 37.5759 27.3121 37.5707C26.9431 37.5346 26.6069 37.4331 26.3138 37.2696C26.169 37.1904 26.0241 37.0958 25.8794 36.9891C25.381 36.6209 24.9569 36.1339 24.6207 35.5454L22.4999 31.8406L19.8172 26.9951L18.7448 25.0627L18.181 24.0165C18.0138 23.7411 17.8535 23.4761 17.7068 23.2352C16.0707 20.5285 15.8863 20.2928 14.6793 20.8348C14.6638 20.8452 14.3259 21.0241 13.9931 20.9175C13.8104 20.859 13.6673 20.7282 13.5759 20.5389C13.3276 20.0174 13.7052 19.601 14.0206 19.448L16.3811 18.1263C16.9103 17.8132 17.1983 16.6706 17.1983 14.5559C17.2138 13.6335 17.2017 11.8835 17.1965 11.2572L17.2293 8.5522C17.231 8.41971 17.2293 8.27 17.2293 8.11342C17.2242 7.48191 17.2172 6.69897 17.4242 6.24986C17.5776 5.91775 17.762 5.62867 17.9742 5.38777L17.9983 5.36196C18.2482 5.05911 18.3241 4.96619 18.8638 4.68055L19.5432 4.32092C19.5448 4.31919 19.5482 4.31747 19.5552 4.31403L19.8638 4.15056C20.7655 3.78404 21.2294 4.37598 22.6448 6.83319L22.7087 6.9416C22.7569 7.02935 22.8414 7.09474 22.9379 7.12055C23.0345 7.14637 23.1397 7.13087 23.2155 7.08614L26.2259 5.44455C26.3897 5.35164 26.4501 5.1503 26.3621 4.9834L25.6862 3.69972C25.3069 3.01315 24.6828 2.51586 23.9276 2.29905C23.1742 2.08223 22.3811 2.17171 21.6949 2.54855L19.2828 3.82534H19.281L13.6293 6.8177C12.4552 7.50255 12.4568 9.8548 12.462 10.106C12.4259 11.1677 12.4 12.4256 12.3879 13.8452C12.3845 17.1129 12.3482 18.7045 11.5586 19.1744L9.19828 20.4959C8.88276 20.6489 8.50517 21.0655 8.75344 21.5868C8.8431 21.7761 8.98793 21.9069 9.17068 21.9654C9.50345 22.0721 9.84138 21.8931 9.8569 21.8828C11.0638 21.3407 11.2483 21.5764 12.8844 24.2832C13.1172 24.667 13.3758 25.097 13.6621 25.56L16.581 30.9407L17.6518 32.8989L17.7845 33.102C18.4845 34.3426 19.1156 35.4319 19.6466 36.3145C19.8931 36.8136 21.181 39.3052 22.2793 39.3052L22.4758 39.307C22.6328 39.307 22.8121 39.3086 22.9879 39.3052C23.019 39.307 23.0517 39.307 23.0845 39.307C23.1138 39.307 23.1431 39.307 23.1724 39.307H24.3706C24.3793 39.307 24.3862 39.3086 24.3949 39.3086C24.4362 39.3086 24.5224 39.3086 24.5638 39.3086H28.9724C28.9862 39.3086 28.9999 39.3052 29.0138 39.3052H29.2173C30.7345 39.3052 32.1742 38.0784 32.1742 36.5658V17.4003C32.1742 15.251 31.5862 14.9258 30.8656 13.6147L30.7983 13.5045Z" fill="#1F1F1F"/>
<path d="M9.18793 37.5466H5.5638C4.90517 37.5466 4.56207 37.3419 4.56207 36.7345C4.56207 36.2957 4.9069 35.9619 5.5638 35.9619C7.03793 35.9619 7.36552 35.8534 7.42931 32.7751C7.43104 32.4636 7.43449 32.1384 7.43621 31.7994L7.43965 5.68207L7.43621 4.99894C7.41897 3.15947 6.71207 1.53338 5.33966 0.161948L5.29656 0.127534C4.99828 -0.0720713 4.79655 0.00536188 4.70172 0.0741914C4.37241 0.239382 1.4569 1.68136 1.19483 1.81558C1.1862 1.81902 1.17931 1.82419 1.17241 1.82934C1.09138 1.87925 1.03966 1.96529 1.03104 2.05992V2.06164C1.01897 2.20102 1.08448 2.3404 1.20517 2.43504C2.95517 3.79098 2.95172 5.09186 2.94483 7.94141L2.94311 23.4831L2.88276 32.5531C2.88276 37.409 2.72414 37.5466 1.00172 37.5466C0.344827 37.5466 0 37.9906 0 38.4294C0 38.8631 0.344827 39.3035 1.00172 39.3035H9.21035C9.45517 39.3035 9.66724 39.2038 9.81035 39.0231C9.92759 38.8751 9.99138 38.6806 9.99138 38.4725C9.99138 38.4535 9.99138 38.4346 9.9931 38.4156C10.05 37.9494 9.65863 37.5466 9.18793 37.5466Z" fill="#1F1F1F"/>
<path d="M55.5121 34.7934L54.4 32.8593L54.2242 32.5426H54.231L51.3586 27.3391L50.8069 26.317C50.8035 26.3204 50.8017 26.3238 50.7983 26.3274L49.569 24.1007L48.4966 22.1683L47.9327 21.1221C47.7655 20.8468 47.6051 20.5818 47.4586 20.3409L45.7707 17.3244C45.069 16.07 43.4897 15.6038 42.2172 16.2782L39.9776 17.5292C39.7879 17.6341 39.5552 17.4983 39.5552 17.2814V16.9924C39.5552 15.6639 38.9672 14.9274 38.2466 13.6162L38.1827 13.5078C38.1345 13.4201 38.05 13.3546 37.9535 13.3289C37.8569 13.3031 37.7517 13.3186 37.6759 13.3633L34.6655 15.0049C34.5017 15.0978 34.4413 15.2992 34.5293 15.466L35.0207 16.3987C35.0207 16.3987 35.6207 17.407 35.6207 18.4756V33.4065C35.6207 34.3528 35.6173 35.1357 35.5948 35.7845L35.5914 35.7828C35.4362 37.4812 34.9948 37.55 33.7913 37.55C33.1327 37.55 32.7896 37.994 32.7896 38.4328C32.7896 38.8664 33.1345 39.3068 33.7913 39.3068H36.3518C36.3655 39.3068 36.3793 39.3034 36.3931 39.3034H36.5965C38.2225 39.3034 39.5534 37.9767 39.5534 36.354V20.549C39.5534 19.9141 39.8983 19.3291 40.4535 19.0211L40.5138 18.9866C41.7206 18.4446 41.9051 18.6804 43.5414 21.387C43.7742 21.7708 44.0328 22.201 44.319 22.6638L47.238 28.0446L50.5311 34.0293C50.5362 34.0242 50.5414 34.019 50.5482 34.0121C51.0896 34.9689 51.7241 36.0702 52.3276 37.0785C52.3276 37.0785 52.7379 37.7066 53.2741 38.2968C53.7432 38.8181 54.3069 39.3034 54.7776 39.3034C54.8465 39.3034 54.9242 39.3034 55.0035 39.3034C55.1621 39.3034 55.3397 39.3052 55.531 39.3034C55.5914 39.3052 55.6535 39.3034 55.7173 39.3034C55.7414 39.3034 55.7638 39.3034 55.7897 39.3034H57.4914C57.531 39.3034 57.5655 39.3034 57.6052 39.3034C57.6466 39.3034 57.7327 39.3034 57.7741 39.3034H61.1224C61.1379 39.3034 61.15 39.3034 61.1638 39.3034H61.869C62.681 39.3034 64.1087 38.6529 64.5449 37.7152C64.8086 37.1834 64.9155 36.8083 64.9155 36.0564C64.9155 34.5112 64.3534 33.1467 63.169 31.9644L63.1259 31.93C62.8276 31.7305 62.5086 31.8749 62.3034 31.9868C61.9672 32.1537 59.488 33.3342 59.331 33.4167L59.3276 33.4203C59.2465 33.4701 59.1897 33.5545 59.1811 33.649C59.1656 33.7918 59.2311 33.9348 59.3535 34.0293C59.5725 34.1998 59.7552 34.3684 59.9242 34.5404C61.0863 35.8379 60.9914 37.5758 59.2 37.5758C56.9448 37.5758 56.2914 36.1063 55.6483 35.0239L55.5121 34.7934Z" fill="#1F1F1F"/>
<path d="M5.63096 47.3099H2.76026C2.60509 47.3099 2.48095 47.1843 2.48095 47.0294V45.8971C2.48095 45.7423 2.60682 45.6167 2.76026 45.6167H5.32407C5.47924 45.6167 5.60338 45.4911 5.60338 45.3362C5.60338 45.1813 5.47751 45.0557 5.32407 45.0557H2.76026C2.60509 45.0557 2.48095 44.9301 2.48095 44.7752V43.7789C2.48095 43.624 2.60682 43.5002 2.76026 43.5002H5.53786C5.69303 43.5002 5.81889 43.3745 5.81889 43.2197C5.81889 43.0648 5.69303 42.9392 5.53786 42.9392H1.96372C1.80855 42.9392 1.68268 43.0648 1.68268 43.2197V47.5869C1.68268 47.7418 1.80855 47.8674 1.96372 47.8674H5.62923C5.78441 47.8674 5.91027 47.7418 5.91027 47.5869C5.91027 47.4355 5.78613 47.3099 5.63096 47.3099Z" fill="#1F1F1F"/>
<path d="M12.9914 42.9426H12.7551C12.6 42.9426 12.4741 43.0682 12.4741 43.2231V45.9178C12.4741 46.859 11.8379 47.4389 10.6983 47.4389C9.55691 47.4389 8.9207 46.859 8.9207 45.9178V43.2231C8.9207 43.0682 8.79484 42.9426 8.64139 42.9426H8.40519C8.25002 42.9426 8.12416 43.0682 8.12416 43.2231V45.8834C8.12416 47.2892 9.19656 47.9982 10.6966 47.9982C12.1966 47.9982 13.269 47.2892 13.269 45.8834V43.2231C13.2707 43.0682 13.1448 42.9426 12.9914 42.9426Z" fill="#1F1F1F"/>
<path d="M18.5189 45.1469H17.0068C16.8516 45.1469 16.7258 45.0213 16.7258 44.8664V43.7824C16.7258 43.6274 16.8516 43.5018 17.0068 43.5018H18.4569C19.5052 43.5018 19.85 43.741 19.85 44.2727C19.8517 44.8613 19.4379 45.1469 18.5189 45.1469ZM18.4741 42.9426H16.212C16.0569 42.9426 15.931 43.0682 15.931 43.2231V47.5904C15.931 47.7452 16.0569 47.8708 16.212 47.8708H16.4483C16.6034 47.8708 16.7293 47.7452 16.7293 47.5904V45.9866C16.7293 45.8317 16.8552 45.7061 17.0103 45.7061H18.7207C20.0603 45.7061 20.6966 45.1331 20.6966 44.2727C20.6948 43.3866 20.1345 42.9426 18.4741 42.9426Z" fill="#1F1F1F"/>
<path d="M27.5724 42.9426H27.3361C27.1809 42.9426 27.0551 43.0682 27.0551 43.2214V44.7374C27.0551 44.8922 26.9292 45.0162 26.774 45.0162H23.7826C23.6275 45.0162 23.5016 44.8906 23.5016 44.7374V43.2214C23.5016 43.0666 23.3757 42.9426 23.2223 42.9426H22.9861C22.8309 42.9426 22.7068 43.0682 22.7068 43.2214V47.5886C22.7068 47.7435 22.8327 47.8692 22.9861 47.8692H23.2223C23.3775 47.8692 23.5016 47.7435 23.5016 47.5886V45.8558C23.5016 45.701 23.6275 45.5754 23.7826 45.5754H26.774C26.9292 45.5754 27.0551 45.701 27.0551 45.8558V47.5886C27.0551 47.7435 27.1809 47.8692 27.3361 47.8692H27.5724C27.7275 47.8692 27.8534 47.7435 27.8534 47.5886V43.2214C27.8516 43.0682 27.7275 42.9426 27.5724 42.9426Z" fill="#1F1F1F"/>
<path d="M33.1569 47.4408C31.8172 47.4408 30.8913 46.6217 30.8913 45.4069C30.8913 44.192 31.8172 43.3729 33.1569 43.3729C34.4965 43.3729 35.4241 44.192 35.4241 45.4069C35.4241 46.6217 34.4983 47.4408 33.1569 47.4408ZM33.1569 42.8137C30.8362 42.8137 30.0482 44.2333 30.0482 45.4069C30.0482 46.5804 30.8362 48 33.1569 48C35.4775 48 36.2655 46.5804 36.2655 45.4069C36.2655 44.2333 35.4775 42.8137 33.1569 42.8137Z" fill="#1F1F1F"/>
<path d="M46.3741 42.9426H46.1379C45.9827 42.9426 45.8568 43.0682 45.8568 43.2231V47.5904C45.8568 47.7452 45.9827 47.8708 46.1379 47.8708H46.3741C46.5293 47.8708 46.6552 47.7452 46.6552 47.5904V43.2231C46.6552 43.0682 46.5293 42.9426 46.3741 42.9426Z" fill="#1F1F1F"/>
<path d="M54.2518 46.4977H53.9397C53.8328 46.4977 53.7293 46.5545 53.6897 46.6526C53.4741 47.1878 52.8 47.439 52.1052 47.439C50.8414 47.439 49.9 46.7903 49.9 45.4051C49.9 44.0199 50.8414 43.3712 52.1052 43.3712C52.8035 43.3712 53.4069 43.5587 53.6121 44.0784C53.6518 44.1782 53.7569 44.2367 53.8638 44.2367H54.1811C54.3845 44.2367 54.5276 44.0233 54.4379 43.8392C54.1362 43.218 53.2569 42.8102 52.1655 42.8102C49.8449 42.8102 49.0569 44.2298 49.0569 45.4033C49.0569 46.761 49.969 47.9966 51.9431 47.9966C53.1293 47.9966 54.1569 47.6781 54.5138 46.8712C54.5931 46.6956 54.4449 46.4977 54.2518 46.4977Z" fill="#1F1F1F"/>
<path d="M60.3431 45.2227L58.2827 44.9096C57.6017 44.8063 57.4171 44.5345 57.4171 44.2677C57.4171 43.7223 58.0827 43.3746 58.8723 43.3746C59.6844 43.3746 60.4068 43.5312 60.593 44.0716C60.631 44.1816 60.7361 44.2539 60.8534 44.2539H61.1344C61.3327 44.2539 61.4637 44.0544 61.3964 43.8685C61.0965 43.0494 60.0396 42.8154 59.0327 42.8154C57.5241 42.8154 56.6206 43.3608 56.6206 44.309C56.6206 46.3705 60.8552 45.1349 60.8552 46.4995C60.8552 47.0381 60.2189 47.4408 59.0706 47.4408C58.1361 47.4408 57.4689 47.1379 57.3171 46.6028C57.2828 46.4823 57.1758 46.3963 57.0499 46.3963H56.7827C56.5999 46.3963 56.4585 46.5718 56.5103 46.7456C56.762 47.5922 57.6345 47.9982 59.0258 47.9982C60.6655 47.9982 61.6517 47.4046 61.6517 46.4221C61.6517 45.8163 61.2378 45.3586 60.3431 45.2227Z" fill="#1F1F1F"/>
<path d="M62.9155 43.0493H63.2345V43.908H63.4103V43.0493H63.7276V42.9065H62.9155V43.0493Z" fill="#1F1F1F"/>
<path d="M64.45 43.6137L64.1621 42.9065H63.9052V43.908H64.0638V43.0493L64.4018 43.908H64.4949L64.8432 43.0493V43.908H65V42.9065H64.7483L64.45 43.6137Z" fill="#1F1F1F"/>
<path d="M41.1084 45.1469H39.5964C39.4412 45.1469 39.3154 45.0213 39.3154 44.8664V43.7824C39.3154 43.6274 39.4412 43.5018 39.5964 43.5018H41.0464C42.0947 43.5018 42.4395 43.741 42.4395 44.2727C42.4413 44.8613 42.0274 45.1469 41.1084 45.1469ZM42.2395 45.7268C42.2033 45.6649 42.2361 45.5874 42.305 45.565C42.9654 45.3448 43.2844 44.8802 43.2844 44.2727C43.2844 43.3866 42.7257 42.9426 41.0636 42.9426H38.8016C38.6465 42.9426 38.5206 43.0682 38.5206 43.2231V47.5904C38.5206 47.7452 38.6465 47.8708 38.8016 47.8708H39.0378C39.1929 47.8708 39.3188 47.7452 39.3188 47.5904V45.9866C39.3188 45.8317 39.4447 45.7061 39.5998 45.7061H41.1895C41.2636 45.7061 41.3308 45.7458 41.3688 45.8093L42.4429 47.6678C42.5154 47.7935 42.6481 47.8692 42.793 47.8692H43.0843C43.2602 47.8692 43.3688 47.6798 43.2808 47.5284L42.2395 45.7268Z" fill="#1F1F1F"/>
</svg>
