<svg width="147" height="16" viewBox="0 0 147 16" fill="none" xmlns="http://www.w3.org/2000/svg">
<path d="M3.68142 0.18017H0V15.7329H9.76008V12.3444H3.68142V0.18017ZM22.9446 0.00639592C18.6639 -0.167378 15.1538 3.22122 14.9826 7.56556V8C14.8969 12.3444 18.2359 15.9067 22.5166 15.9936H22.9446C27.2254 16.1674 30.7355 12.7788 30.9068 8.43446V8C30.9924 3.65565 27.6535 0.0932832 23.3728 0.00639592H22.9446ZM22.9446 12.5181C20.5475 12.5181 18.6639 10.5197 18.6639 8.08692V8C18.6639 5.56717 20.5475 3.65565 22.9446 3.65565C25.3418 3.65565 27.2254 5.56717 27.2254 8C27.311 10.4329 25.4275 12.4312 23.0303 12.5181H22.9446ZM42.6359 9.39022L39.0402 0.18017H35.1875L41.3518 15.7329H43.9202L50.0845 0.18017H46.2318L42.6359 9.39022Z" fill="#FDDA00"/>
<path d="M79.7074 9.38974L76.1112 0.179717H72.2586L78.4229 15.7325H80.9915L87.1551 0.179717H83.3029L79.7074 9.38974ZM135.784 4.9585L132.874 0.266604H128.678L133.987 8.86838V15.8194H137.668V8.86838L142.976 0.266604H138.696L135.784 4.9585ZM147 14.3423C147 15.298 146.229 16.0801 145.288 15.9931C144.346 15.9931 143.575 15.2112 143.661 14.2554C143.661 13.2996 144.432 12.6046 145.373 12.6046C146.229 12.5177 147 13.2996 147 14.3423ZM146.658 14.3423C146.658 13.5603 145.973 12.8652 145.202 12.9521C144.432 12.9521 143.747 13.6472 143.832 14.4292C143.832 15.2112 144.517 15.8194 145.288 15.8194C146.058 15.8194 146.658 15.2112 146.658 14.3423ZM145.544 14.5161L145.973 15.1243H145.544L145.202 14.6029H145.031V15.1243H144.689V13.4735H145.373C145.63 13.4735 145.973 13.6472 145.973 13.9947C145.973 14.2554 145.802 14.4292 145.544 14.5161ZM145.288 14.2554C145.373 14.2554 145.544 14.1685 145.544 14.0817C145.544 13.9947 145.459 13.821 145.373 13.821H145.031V14.2554H145.288ZM120.374 9.38974C120.973 9.21593 121.487 8.86838 121.915 8.34711C122.771 7.39134 123.2 6.2618 123.2 4.9585C123.2 3.74208 122.771 2.52567 121.915 1.6568C120.802 0.614153 119.347 0.0928309 117.806 0.179717H111.898V15.7325H115.579V9.82414H116.093L121.059 15.7325H125.682L120.374 9.38974ZM119.09 5.91426C118.918 6.08803 118.576 6.34869 117.634 6.34869H115.579V3.6552H117.634C118.491 3.6552 118.833 3.91586 119.09 4.08963C119.347 4.35029 119.432 4.69784 119.432 5.04539C119.432 5.39293 119.347 5.65359 119.09 5.91426ZM66.4368 12.3439H60.3582V9.4766H64.8102V6.00114H60.3582V3.6552H66.18V0.179717H56.6768V15.7325H66.4368V12.3439ZM103.594 12.3439H97.515V9.4766H101.967V6.00114H97.515V3.6552H103.422V0.179717H93.8337V15.7325H103.594V12.3439Z" fill="#514F4E"/>
</svg>
