<svg width="129" height="40" viewBox="0 0 129 40" fill="none" xmlns="http://www.w3.org/2000/svg">
<path d="M16.4867 10.5471C9.08872 10.5635 3.43154 16.6943 3.54193 23.6873C3.65116 30.6034 9.43826 36.5698 16.7983 36.4106C23.7834 36.2589 29.5068 30.4795 29.4592 23.403C29.4115 16.2983 23.5689 10.502 16.4867 10.5471ZM16.5069 7.02232C25.6578 7.03074 33.0132 14.4068 33.0014 23.5635C32.99 32.5707 25.5532 39.956 16.4917 39.9484C7.32992 39.9404 -0.0807024 32.4224 0.000663674 23.2914C0.0799212 14.3495 7.46434 7.01389 16.5069 7.02232Z" fill="#101926"/>
<path d="M72.1622 22.5117C72.3233 22.5277 72.4249 22.5466 72.5262 22.5466C76.4085 22.5454 80.2899 22.5441 84.1722 22.5369C84.4629 22.5365 84.7559 22.5091 85.0443 22.467C88.111 22.0137 90.4049 20.1222 90.5545 16.9425C90.6483 14.9469 89.9545 13.2812 88.3118 12.0768C86.9273 11.0611 85.3412 10.7283 83.6505 10.7338C80.0093 10.7456 76.3674 10.7375 72.7262 10.7375H72.1622V22.5117ZM72.1399 39.3781H68.72V7.68164C68.9097 7.67237 69.0919 7.65552 69.2744 7.65552C74.1038 7.65429 78.9333 7.63783 83.7629 7.66271C85.9722 7.67407 88.0994 8.09281 90.0056 9.28884C92.3507 10.7603 93.6794 12.8713 93.9499 15.634C94.1584 17.7669 93.7639 19.7625 92.5964 21.5815C91.4057 23.4389 89.6994 24.6079 87.6203 25.2752C87.5412 25.3004 87.4637 25.3312 87.3149 25.3856C89.9002 30.0461 92.4708 34.6792 95.0871 39.3932C93.8476 39.3932 92.6747 39.4055 91.5026 39.3764C91.3793 39.373 91.2289 39.1502 91.146 38.9993C89.6917 36.3381 88.2459 33.6724 86.7986 31.0079C85.8986 29.351 84.9955 27.6971 84.1016 26.0368C83.9606 25.7744 83.8071 25.6274 83.4722 25.6286C79.8295 25.6408 76.1852 25.6354 72.5417 25.6375C72.4257 25.6375 72.3094 25.6649 72.1399 25.6863V39.3781Z" fill="#101926"/>
<path d="M36.1224 7.64913H39.6442C39.6442 7.87917 39.6438 8.0953 39.6438 8.31058C39.6442 13.9754 39.6442 19.6394 39.6438 25.3038C39.6438 27.199 39.981 29.0198 40.8495 30.7218C42.1767 33.321 44.2787 34.9955 47.0417 35.8714C49.9254 36.7855 52.774 36.6671 55.5236 35.4121C58.4545 34.0751 60.2879 31.7517 61.0855 28.6655C61.3823 27.5176 61.5189 26.2992 61.5282 25.1117C61.5729 19.5164 61.548 13.9202 61.548 8.32449V7.67316H65.091C65.091 7.88883 65.0914 8.09152 65.091 8.29374C65.0885 14.1814 65.1319 20.0691 65.0665 25.9563C65.021 30.0582 63.6041 33.6344 60.5177 36.4451C58.4928 38.2894 56.0678 39.327 53.3875 39.7622C50.1775 40.2833 47.0396 39.9691 44.0725 38.6101C40.0869 36.7851 37.5894 33.6715 36.5877 29.4264C36.272 28.0896 36.135 26.6834 36.1227 25.3067C36.0726 19.5745 36.1013 13.8406 36.1017 8.1079C36.1017 7.97182 36.1134 7.83582 36.1224 7.64913Z" fill="#101926"/>
<path d="M112.859 11.7738C110.314 17.2954 107.823 22.7015 105.303 28.1688H120.37C117.862 22.6935 115.383 17.2819 112.859 11.7738ZM129 39.3982C127.831 39.3982 126.731 39.3813 125.632 39.4079C125.243 39.4167 125.192 39.1492 125.086 38.9099C124.027 36.5125 122.963 34.1167 121.923 31.7104C121.767 31.3494 121.566 31.2525 121.189 31.2533C115.621 31.2655 110.052 31.2664 104.482 31.2512C104.075 31.2504 103.89 31.3738 103.728 31.75C102.661 34.2183 101.566 36.6747 100.466 39.1289C100.413 39.2486 100.228 39.3839 100.102 39.386C98.9854 39.4062 97.8691 39.3973 96.6722 39.3973C97.0272 38.6053 97.3552 37.8601 97.6939 37.1195C98.8412 34.6109 99.9916 32.1038 101.141 29.596C104.016 23.3208 106.89 17.0459 109.764 10.7703C110.186 9.85109 110.614 8.9344 111.02 8.00844C111.131 7.75738 111.263 7.64317 111.553 7.64997C112.394 7.66929 113.238 7.67393 114.079 7.64951C114.396 7.64024 114.528 7.76998 114.649 8.03664C115.988 10.9843 117.336 13.9278 118.688 16.8695C120.591 21.008 122.505 25.1406 124.401 29.2822C125.933 32.6271 127.447 35.9804 129 39.3982Z" fill="#101926"/>
<path d="M8.27859 0H24.7051V3.47507H8.27859V0Z" fill="#101926"/>
</svg>
