<svg width="118" height="40" viewBox="0 0 118 40" fill="none" xmlns="http://www.w3.org/2000/svg">
<path d="M106.547 27.5039L95.1841 13.0408H81.8291L75.8777 23.5241L69.9261 13.0408H59.1366L54.5071 27.6981L50.496 13.0408H44.5445L40.5335 27.7369L35.9039 13.0408H30.3626C29.8274 9.27618 27.8885 5.84885 24.9304 3.43803C21.9723 1.0272 18.2107 -0.19116 14.3913 0.0244091C10.5719 0.239978 6.97334 1.87375 4.30887 4.60191C1.64441 7.33007 0.10849 10.9535 0.00553146 14.7541C-0.0974274 18.5547 1.24009 22.255 3.75298 25.1217C6.26588 27.9884 9.77076 29.8122 13.573 30.2317C17.3752 30.6512 21.1972 29.6357 24.2816 27.3866C27.3659 25.1374 29.4876 21.8187 30.2259 18.0883L36.9977 40H43.5092L47.4746 26.1515L51.4857 40H57.9972L64.8603 17.9265L72.2182 30.4354V40H79.537V30.4354L88.5749 15.0792V40H95.6594V24.9543L107.601 40H113.638V13.0408H106.547V27.5039ZM15.2691 23.6212C13.5853 23.6212 11.9394 23.1248 10.5395 22.1949C9.13971 21.2649 8.04891 19.9432 7.40517 18.397C6.76141 16.8508 6.59364 15.1496 6.92308 13.5085C7.25251 11.8675 8.06435 10.3604 9.25586 9.17807C10.4474 7.99573 11.965 7.19122 13.6167 6.86632C15.2684 6.54144 16.98 6.71078 18.5349 7.35292C20.0897 7.99506 21.418 9.08115 22.3515 10.4738C23.2852 11.8664 23.7821 13.5029 23.7795 15.1763C23.7761 17.4184 22.8783 19.5677 21.2831 21.1531C19.6878 22.7385 17.5251 23.6308 15.2691 23.6342V23.6212Z" fill="#231F20"/>
<path d="M30.2259 32.9593H0.305808V40H30.2259V32.9593Z" fill="#231F20"/>
<path d="M34.5299 9.03501C34.8596 9.04974 35.189 8.9993 35.4989 8.8866C35.8089 8.77391 36.0933 8.6012 36.3355 8.37847C36.5777 8.15576 36.7731 7.88748 36.9103 7.58917C37.0474 7.29085 37.1237 6.96845 37.1345 6.64065C37.046 6.02363 36.7365 5.45904 36.2628 5.0506C35.7892 4.64216 35.1831 4.41729 34.5561 4.41729C33.9289 4.41729 33.3228 4.64216 32.8491 5.0506C32.3755 5.45904 32.066 6.02363 31.9775 6.64065C31.9979 7.29406 32.2779 7.91284 32.7564 8.36157C33.2347 8.81029 33.8724 9.05244 34.5299 9.03501ZM34.5299 5.3658C34.7191 5.32763 34.9145 5.33172 35.1018 5.37777C35.2891 5.42382 35.4638 5.51068 35.6133 5.63207C35.7628 5.75345 35.8831 5.90634 35.9658 6.07965C36.0485 6.25296 36.0914 6.44236 36.0914 6.63417C36.0914 6.82597 36.0485 7.01539 35.9658 7.1887C35.8831 7.36201 35.7628 7.51489 35.6133 7.63627C35.4638 7.75766 35.2891 7.84452 35.1018 7.89058C34.9145 7.93661 34.7191 7.94071 34.5299 7.90253C34.1901 7.90264 33.8638 7.77074 33.6204 7.53497C33.3771 7.29921 33.2362 6.97826 33.2277 6.64065C33.2328 6.30076 33.3722 5.97653 33.616 5.738C33.8596 5.49946 34.188 5.36577 34.5299 5.3658Z" fill="#231F20"/>
<path d="M39.1727 6.34947L41.2302 8.94444H42.2721V4.29809H41.0479V6.78951L39.088 4.29809H37.9485V8.94444H39.1727V6.34947Z" fill="#231F20"/>
<path d="M46.3548 7.79903H44.5772V4.29809H43.301V8.94444H46.3548V7.79903Z" fill="#231F20"/>
<path d="M47.8525 8.94444H49.1157V7.30074L50.8803 4.29809H49.5129L48.4841 6.10356L47.4618 4.29809H46.0879L47.8525 7.30074V8.94444Z" fill="#231F20"/>
<path d="M55.998 8.94444L56.6818 6.55655L57.3719 8.94444H58.4919L59.9309 4.29809H58.6873L57.8863 6.82834L57.1962 4.29809H56.1674L55.4771 6.83482L54.6827 4.29809H53.4325L54.8715 8.94444H55.998Z" fill="#231F20"/>
<path d="M61.9235 7.07424H63.6816V8.94444H64.9579V4.29809H63.6816V5.90942H61.9235V4.29809H60.6473V8.94444H61.9235V7.07424Z" fill="#231F20"/>
<path d="M67.2368 8.33614H69.0405L69.2815 8.94444H70.6292L68.7149 4.29809H67.5494L65.6415 8.94444H66.9828L67.2368 8.33614ZM68.1353 5.91589L68.6954 7.35898H67.5689L68.1353 5.91589Z" fill="#231F20"/>
<path d="M71.6843 8.94444H72.9606V5.4435H74.1978V4.29809H70.4277V5.4435H71.6843V8.94444Z" fill="#231F20"/>
<path d="M78.3452 8.94444H79.6085V7.30074L81.3731 4.29809H79.9992L78.977 6.10356L77.9481 4.29809H76.5808L78.3452 7.30074V8.94444Z" fill="#231F20"/>
<path d="M84.0169 9.03501C84.3467 9.04974 84.676 8.9993 84.9859 8.8866C85.2959 8.77391 85.5801 8.6012 85.8225 8.37847C86.0648 8.15576 86.2601 7.88748 86.3973 7.58917C86.5344 7.29085 86.6107 6.96845 86.6215 6.64065C86.533 6.02363 86.2235 5.45904 85.7499 5.0506C85.2762 4.64216 84.6701 4.41729 84.0431 4.41729C83.4159 4.41729 82.8098 4.64216 82.3361 5.0506C81.8625 5.45904 81.553 6.02363 81.4645 6.64065C81.485 7.29406 81.7649 7.91284 82.2432 8.36157C82.7217 8.81029 83.3594 9.05244 84.0169 9.03501ZM84.0169 5.3658C84.2061 5.32763 84.4015 5.33172 84.5888 5.37777C84.7761 5.42382 84.9508 5.51068 85.1003 5.63207C85.2498 5.75345 85.3701 5.90634 85.4528 6.07965C85.5355 6.25296 85.5784 6.44236 85.5784 6.63417C85.5784 6.82597 85.5355 7.01539 85.4528 7.1887C85.3701 7.36201 85.2498 7.51489 85.1003 7.63627C84.9508 7.75766 84.7761 7.84452 84.5888 7.89058C84.4015 7.93661 84.2061 7.94071 84.0169 7.90253C83.8473 7.90775 83.6782 7.87893 83.52 7.81778C83.3618 7.75662 83.2176 7.66439 83.0961 7.5466C82.9745 7.42881 82.8781 7.28787 82.8125 7.13222C82.747 6.97656 82.7137 6.80937 82.7147 6.64065C82.7198 6.30076 82.8592 5.97653 83.103 5.738C83.3466 5.49946 83.675 5.36577 84.0169 5.3658Z" fill="#231F20"/>
<path d="M89.4996 9.00916C89.7787 9.03016 90.059 8.99133 90.3216 8.89529C90.5844 8.79925 90.8232 8.64824 91.022 8.45249C91.2209 8.25674 91.375 8.02082 91.474 7.7607C91.5732 7.50058 91.6148 7.22235 91.5964 6.94482V4.29809H90.294V6.80893C90.294 7.61136 89.9685 7.86373 89.4736 7.86373C88.9788 7.86373 88.6467 7.61136 88.6467 6.80893V4.29809H87.3444V6.94482C87.3247 7.2277 87.3676 7.51142 87.4701 7.77604C87.5726 8.04066 87.7321 8.27976 87.9375 8.47652C88.1431 8.67328 88.3893 8.82294 88.6592 8.91495C88.929 9.00697 89.2159 9.03913 89.4996 9.00916Z" fill="#231F20"/>
<path d="M96.7469 6.34947L98.8045 8.94444H99.8463V4.29809H98.6221V6.78951L96.6687 4.29809H95.5227V8.94444H96.7469V6.34947Z" fill="#231F20"/>
<path d="M104.378 7.82492H102.151V7.11954H104.177V6.07768H102.151V5.43702H104.326V4.29809H100.875V8.94444H104.378V7.82492Z" fill="#231F20"/>
<path d="M108.8 7.82492H106.566V7.11954H108.598V6.07768H106.566V5.43702H108.741V4.29809H105.296V8.94444H108.8V7.82492Z" fill="#231F20"/>
<path d="M111.612 4.29809H109.711V8.94444H111.619C113.292 8.94444 114.119 7.99964 114.119 6.63421C114.119 5.26877 113.318 4.29809 111.612 4.29809ZM111.541 7.78609H110.987V5.50174H111.534C112.661 5.50174 112.837 6.01944 112.837 6.63421C112.837 7.24898 112.667 7.78609 111.541 7.78609Z" fill="#231F20"/>
<path d="M115.786 14.6909H115.513V13.3383H115.07V13.0471H116.229V13.3383H115.786V14.6909ZM117.264 14.3091L116.821 13.526V14.6909H116.561V13.0471H116.854L117.284 13.8237L117.714 13.0471H118V14.6909H117.733V13.526L117.264 14.3091Z" fill="#231F20"/>
</svg>
