<svg width="83" height="40" viewBox="0 0 83 40" fill="none" xmlns="http://www.w3.org/2000/svg">
<path d="M41.5 40C64.4197 40 83 31.0457 83 20C83 8.95431 64.4197 0 41.5 0C18.5802 0 0 8.95431 0 20C0 31.0457 18.5802 40 41.5 40Z" fill="#EC2629"/>
<path d="M11.8731 28.1601C11.9879 27.9263 12.0453 27.4447 12.0453 26.9241C12.0453 26.2966 12.0453 24.9818 12.0453 24.0945C12.045 24.0271 12.0713 23.9622 12.1185 23.9137C12.1657 23.8651 12.2302 23.8368 12.2981 23.8347C13.3353 23.8098 14.7722 23.6509 15.6886 22.8356C16.5274 22.0932 16.9222 21.147 17.2142 19.8042C17.5254 18.3689 17.6312 16.8974 17.5284 15.4329C17.4166 13.6344 17.0611 12.5773 16.8557 12.0947C16.6422 11.5951 16.4187 11.1585 16.1579 10.8448C15.7595 10.3834 15.2519 10.0274 14.6806 9.80863C14.2586 9.67037 13.8124 9.61993 13.3699 9.6605C12.9274 9.70108 12.4981 9.83179 12.1088 10.0445C12.1088 10.0445 10.5983 10.8118 9.67186 11.697C9.34257 12.0108 9.01832 12.2825 8.83605 12.5963C8.61326 12.9955 8.47422 13.4353 8.42724 13.8892C8.39186 14.2588 8.37806 14.6301 8.38594 15.0012C8.38594 15.296 8.38594 15.6887 8.38594 15.6887V24.6281C8.38594 24.9568 8.397 25.5802 8.4111 25.852C8.4273 26.176 8.48484 26.4966 8.58228 26.8062C8.683 27.127 8.85218 27.3887 9.1462 27.7194C9.42564 28.0301 9.75798 28.2895 10.128 28.4858C10.3739 28.6302 10.6491 28.7186 10.9336 28.7446C11.2025 28.7705 11.5902 28.7386 11.8731 28.1601ZM13.6474 18.7491C13.3786 20.035 12.723 20.2478 12.3383 20.2578C12.2995 20.258 12.261 20.2507 12.2251 20.2362C12.1891 20.2216 12.1564 20.2002 12.1288 20.1731C12.1012 20.146 12.0792 20.1137 12.0643 20.0782C12.0492 20.0427 12.0414 20.0046 12.0413 19.966V14.6965C12.0413 14.2968 12.2085 14.124 12.5257 13.9501C12.8892 13.7503 13.5508 13.6504 13.7663 14.6955C14.019 15.8945 13.9445 17.3303 13.6474 18.7491Z" fill="white"/>
<path d="M72.4596 24.0297C72.1657 24.1296 70.9312 24.6861 70.4611 24.9019C70.4371 24.9178 70.409 24.9264 70.3802 24.9267C70.3515 24.9271 70.3231 24.919 70.2987 24.9036C70.2747 24.8883 70.2554 24.8662 70.2436 24.8402C70.2318 24.8141 70.2277 24.7852 70.2324 24.757L70.2233 22.2102C70.2267 22.1407 70.2524 22.0742 70.2964 22.0203C70.3407 21.9663 70.4012 21.9278 70.4689 21.9105C70.6512 21.8725 71.1578 21.7736 71.7095 21.6637C72.9632 21.4119 73.7307 20.8314 73.6813 19.6504C73.64 18.6852 72.8425 18.1017 72.0257 17.9858C71.4899 17.9088 70.7739 17.8219 70.4749 17.7859C70.4066 17.7756 70.344 17.7418 70.2981 17.6903C70.2521 17.6388 70.226 17.5729 70.2243 17.5042V15.2261C70.2216 15.1965 70.2267 15.1666 70.2389 15.1395C70.2514 15.1123 70.2707 15.0888 70.2947 15.0713C70.319 15.0538 70.3474 15.0428 70.3772 15.0395C70.4073 15.0361 70.4374 15.0405 70.4648 15.0523C70.9373 15.2002 72.1769 15.5888 72.6903 15.7237C72.9693 15.8055 73.2639 15.8196 73.5494 15.7647C73.8907 15.6772 74.1947 15.4844 74.4183 15.2141C74.6199 14.9653 74.7203 14.6796 74.7203 14.215C74.7247 13.8748 74.6341 13.5401 74.4585 13.2478C74.2938 12.9512 74.0807 12.6835 73.8284 12.4555C73.5778 12.2256 73.3106 12.0142 73.0289 11.823C72.7809 11.6442 72.1224 11.2026 71.8877 11.0567C70.8375 10.4049 69.7515 9.81213 68.6343 9.28116C68.1368 9.03739 67.7421 9.06735 67.4046 9.27217C67.1025 9.45204 66.8901 9.75079 66.7653 10.1594C66.6574 10.5348 66.5982 10.9222 66.5891 11.3124C66.5739 11.7121 66.5658 12.1327 66.5658 12.5634V27.12C66.5658 27.5467 66.5739 27.9673 66.5891 28.37C66.606 28.8116 66.5759 29.0814 66.7332 29.5529C66.7815 29.733 66.8658 29.9016 66.9808 30.0491C67.0954 30.1965 67.2385 30.32 67.4018 30.4122C67.8628 30.701 68.6736 30.5391 68.9354 30.4262C70.6079 29.7108 72.1245 28.5139 72.9332 27.9813C73.7418 27.4488 74.2421 26.8942 74.4437 26.5055C74.6402 26.1389 74.7362 25.7276 74.7224 25.3126C74.7224 24.838 74.5735 24.5222 74.3591 24.2865C74.1071 24.0087 73.9218 23.9367 73.5392 23.8758C73.1567 23.8148 72.7519 23.9287 72.4596 24.0297Z" fill="white"/>
<path d="M53.1024 24.0526C53.0912 23.9527 51.9243 14.2299 51.1992 8.80354C51.1258 8.25699 51.0422 7.72045 50.9526 7.20491C50.8701 6.70995 50.7385 6.22432 50.5596 5.75513C50.4027 5.33376 50.1629 4.94732 49.8547 4.61811C49.5243 4.28044 49.0887 4.06297 48.6182 4.00062C48.1599 3.93944 47.6972 3.91206 47.2345 3.9187C46.5963 3.9087 46.275 4.00562 45.9256 4.31836C45.6036 4.61516 45.354 4.98075 45.1954 5.38745C45.0114 5.84849 44.8764 6.32734 44.7926 6.81623C44.6982 7.3318 44.6153 7.87532 44.548 8.43187C44.2149 11.0237 43.1383 19.2517 42.98 20.6885C42.8532 21.8545 42.6881 23.0954 42.5369 24.2744V24.3813C42.5319 24.745 42.517 33.8912 42.517 33.8912C42.5099 34.5567 42.7436 35.1903 43.1444 35.59C43.3091 35.7507 43.5049 35.8769 43.72 35.9615C43.9348 36.0457 44.1648 36.086 44.3958 36.0803H44.4875C45.9398 36.0205 46.3453 34.9114 46.3453 33.5825C46.3453 33.5336 46.3244 28.6567 46.3453 27.148C46.3457 27.0843 46.371 27.0233 46.416 26.978C46.461 26.9326 46.5219 26.9065 46.5862 26.9052C47.5859 26.8992 48.0331 26.8942 49.0734 26.8242C49.1039 26.8221 49.134 26.8262 49.1627 26.8363C49.1915 26.8465 49.2175 26.8625 49.2395 26.8832C49.2615 26.9047 49.2791 26.9303 49.2909 26.9587C49.3028 26.987 49.3085 27.0174 49.3082 27.0481V33.4167C49.3001 34.1251 49.5405 34.7725 49.9505 35.1473C50.287 35.4551 50.7179 35.5779 51.2283 35.5158C52.6069 35.346 53.1095 34.0862 53.1206 33.058C53.1105 33.05 53.1156 25.0088 53.1024 24.0526ZM48.1068 10.8478C48.1511 11.3334 49.1249 22.0523 49.1249 22.0523C49.1279 22.0834 49.1249 22.1147 49.1157 22.1445C49.1066 22.1744 49.0914 22.2021 49.0714 22.2261C49.0518 22.2501 49.0278 22.2698 49.0001 22.2839C48.9727 22.298 48.9422 22.3062 48.9114 22.3081C48.2062 22.3461 47.5538 22.36 46.8973 22.374C46.8679 22.3761 46.8385 22.3716 46.8111 22.3611C46.7833 22.3505 46.7586 22.3342 46.7384 22.3131C46.7184 22.2908 46.7032 22.2646 46.6944 22.2362C46.6853 22.2078 46.6825 22.1778 46.6859 22.1482C46.7241 21.7486 47.6806 11.3124 47.7239 10.8478C47.7584 10.4662 47.8048 10.3912 47.9123 10.3872C48.0202 10.3832 48.0726 10.4591 48.1068 10.8478Z" fill="white"/>
<path d="M40.7004 32.0747C40.582 32.0208 40.4775 31.9412 40.3947 31.8417C40.3118 31.7423 40.2523 31.6256 40.2211 31.5002C40.1724 31.264 40.1515 31.0229 40.1586 30.7818V28.4189C40.1586 27.4197 40.1376 25.6802 39.9834 24.8219C39.8711 24.1442 39.6915 23.4791 39.4466 22.8366C39.2714 22.3356 39.0309 21.8593 38.7316 21.4198C38.6673 21.3289 38.6017 21.242 38.5375 21.159C38.4955 21.104 38.4749 21.0361 38.4786 20.9673C38.4827 20.8986 38.5107 20.8334 38.5584 20.7833C38.7123 20.6225 38.853 20.4498 38.9795 20.2668C39.2785 19.8341 39.5274 19.3692 39.7216 18.8809C39.9228 18.3799 40.0821 17.8632 40.1978 17.3363C40.3138 16.8157 40.4072 16.3051 40.4768 15.8195C40.5462 15.334 40.5905 14.8773 40.6108 14.4667C40.6307 14.056 40.6419 13.7313 40.6419 13.4825C40.6507 12.4269 40.5854 11.3719 40.4467 10.3252C40.3385 9.51808 40.164 8.72112 39.9249 7.94225C39.7415 7.33613 39.4875 6.75335 39.1676 6.2057C38.9173 5.78446 38.6224 5.39088 38.2875 5.0317C37.9236 4.65892 37.4859 4.36444 37.0023 4.16658C36.5186 3.96875 35.9991 3.87176 35.4762 3.88169C34.3756 3.88169 33.153 4.01059 32.5115 4.16644C31.8701 4.32232 31.4633 4.5661 31.1279 5.0427C30.8772 5.3994 30.7372 5.79604 30.6325 6.3306C30.5281 6.88275 30.4699 7.44252 30.4583 8.0042C30.4422 8.5937 30.4331 9.20316 30.4331 9.82065V29.9426C30.4331 30.1424 30.4331 30.3422 30.4331 30.5421V33.0559C30.4331 34.209 31.0504 35.5467 32.4169 35.6876C33.9011 35.8407 34.4622 34.5745 34.4622 33.5035V23.0124C34.4612 22.9409 34.4856 22.8713 34.5305 22.8155C34.5759 22.7597 34.6391 22.7213 34.7098 22.7067C34.8451 22.6884 34.9831 22.6998 35.1133 22.74C35.2438 22.7802 35.3639 22.8483 35.465 22.9395C35.6734 23.1492 35.8185 23.4126 35.8841 23.6999C35.9832 24.1204 36.0431 24.5492 36.062 24.9808C36.1016 25.5163 36.1266 26.2087 36.1266 26.8472V32.1337C36.1266 32.7552 36.1922 34.2161 36.6945 35.0094C36.9231 35.3698 37.4308 36.1162 38.5747 36.1162C39.8224 36.1162 40.4488 35.199 40.7427 34.5097C40.9439 34.0281 41.0095 33.5105 41.0095 32.939C41.0173 32.7819 41.0106 32.6243 40.9893 32.4684C40.9717 32.3864 40.9368 32.309 40.8871 32.2411C40.837 32.1733 40.7735 32.1167 40.7004 32.0747ZM36.593 15.0312C36.5457 15.5418 36.4922 15.9195 36.4226 16.2981C36.3776 16.5993 36.2957 16.8938 36.179 17.1754C36.0644 17.4757 35.8655 17.7371 35.6057 17.9289C35.346 18.1206 35.0365 18.2346 34.7139 18.2575C34.5748 18.2695 34.4622 18.1136 34.4622 17.9278V8.97137C34.4622 8.78451 34.5748 8.62266 34.7139 8.60766C34.9594 8.56685 35.2107 8.57296 35.4539 8.62568C35.6724 8.69061 35.7972 8.8025 35.9575 9.02533C36.0529 9.16799 36.1324 9.32042 36.1949 9.47993C36.2947 9.73299 36.3722 9.99408 36.4266 10.2603C36.4993 10.593 36.5748 11.1325 36.6211 11.5921C36.6674 12.0518 36.6695 12.6392 36.6695 13.2497C36.6654 13.9361 36.64 14.5137 36.593 15.0312Z" fill="white"/>
<path d="M28.4091 24.0415L28.395 23.8587L26.5441 9.32304C26.5441 9.31304 26.387 8.35486 26.2994 7.91721C26.2197 7.48547 26.0843 7.06572 25.8966 6.66828C25.7269 6.30366 25.4549 5.99525 25.1132 5.78003C24.794 5.58821 24.358 5.56522 23.8202 5.65415C23.4466 5.71674 23.0769 5.79983 22.7125 5.90293C22.2718 6.03196 21.8781 6.28453 21.5787 6.63032C21.2992 6.94638 21.0746 7.30634 20.9141 7.69542C20.7427 8.11112 20.6129 8.54249 20.5264 8.98332C20.4327 9.43794 20.3803 9.76666 20.2897 10.3591C20.2666 10.516 18.5567 21.6855 18.319 23.1423L18.312 23.2192C18.312 23.2192 18.312 29.8576 18.312 30.6129C18.312 31.3683 18.5446 32.7012 19.9534 33.1318C20.1735 33.1975 20.4059 33.2125 20.6327 33.1756C20.8596 33.1387 21.075 33.051 21.2625 32.919C21.7549 32.5443 21.9452 31.8199 21.9452 30.9107L21.9402 25.7611C21.9389 25.7317 21.9443 25.7024 21.9557 25.6753C21.9672 25.6482 21.9846 25.6239 22.0066 25.6042C22.029 25.5853 22.0553 25.5716 22.0837 25.5641C22.1122 25.5567 22.1419 25.5557 22.1708 25.5613C22.9713 25.6921 23.6148 25.7821 24.5291 25.853C24.5939 25.8594 24.6539 25.8895 24.6976 25.9373C24.7413 25.985 24.7656 26.0472 24.7658 26.1118V32.2486C24.7616 32.796 24.9033 33.3347 25.1766 33.8103C25.3281 34.0613 25.5326 34.2771 25.7759 34.4422C26.0192 34.6077 26.2957 34.7191 26.5864 34.7684C26.6909 34.7892 26.7971 34.8 26.9036 34.8003C27.2048 34.8043 27.4968 34.6976 27.7233 34.5006C28.263 34.0412 28.4463 33.1608 28.4393 32.5463L28.4091 24.0415ZM24.4153 21.3299C24.4186 21.3597 24.4156 21.3898 24.4064 21.4184C24.3972 21.4469 24.382 21.4733 24.362 21.4957C24.342 21.5173 24.3172 21.5341 24.2896 21.5446C24.262 21.5552 24.2323 21.5593 24.2029 21.5566C23.5735 21.5247 22.9945 21.4677 22.3631 21.3798C22.3005 21.3685 22.2447 21.3338 22.2072 21.2829C22.1697 21.2319 22.1534 21.1686 22.1617 21.106C22.2342 20.4926 22.4215 19.0228 22.6169 17.3472C22.8958 14.9692 23.1687 12.6032 23.1949 12.3514C23.2221 12.0837 23.2643 11.9328 23.3963 11.9318C23.5282 11.9308 23.5644 12.1097 23.5826 12.3015C23.5977 12.4554 24.0861 17.8818 24.3227 20.4436L24.4153 21.3299Z" fill="white"/>
<path d="M64.5661 14.7045C64.5661 13.8052 64.5884 13.0779 64.5039 12.0407C64.4031 10.8508 64.1937 8.98135 63.0942 7.72742C61.9943 6.47348 61.08 6.28363 60.084 5.94093C59.0882 5.59822 57.1922 5.1546 56.7812 5.18256C56.4146 5.21296 56.0703 5.36995 55.8085 5.62621C55.522 5.90831 55.3313 6.27182 55.2626 6.66631C55.1655 7.17698 55.1145 7.6953 55.1107 8.215C55.0935 8.76852 55.0854 9.35302 55.0854 9.95353V29.7517C55.0854 30.3512 55.0935 30.9367 55.1107 31.4902C55.1145 32.0096 55.1655 32.5276 55.2626 33.0379C55.3313 33.4328 55.522 33.7966 55.8085 34.0791C56.0706 34.3349 56.4146 34.4919 56.7812 34.5228C57.1922 34.5507 59.0882 34.107 60.084 33.7644C61.08 33.4216 61.9973 33.2308 63.0942 31.9768C64.1907 30.7229 64.4031 28.8545 64.5039 27.6645C64.5884 26.6264 64.5661 25.897 64.5661 25.0007V14.7045ZM60.8896 26.5484C60.8896 27.4177 60.8443 28.2909 60.2683 28.8714C60.1256 29.0163 59.8364 29.2452 59.2614 29.41C59.232 29.4198 59.2009 29.4221 59.1701 29.4168C59.1397 29.4115 59.1109 29.3988 59.0869 29.3798C59.0625 29.3607 59.0433 29.336 59.0311 29.3078C59.0189 29.2796 59.0138 29.2488 59.0169 29.2182V10.487C59.0142 10.4565 59.0189 10.4257 59.0311 10.3975C59.0436 10.3693 59.0625 10.3445 59.0869 10.3254C59.1109 10.3063 59.1397 10.2934 59.1701 10.288C59.2005 10.2826 59.232 10.2847 59.2614 10.2942C59.8354 10.4601 60.1246 10.6939 60.2683 10.8338C60.7438 11.3134 60.8575 11.9928 60.8825 12.7042L60.8886 12.963C60.8886 13.0269 60.8886 13.0919 60.8886 13.1568L60.8896 26.5484Z" fill="white"/>
</svg>
