<svg width="128" height="40" viewBox="0 0 128 40" fill="none" xmlns="http://www.w3.org/2000/svg">
<path d="M128 13.8629C127.954 5.41583 123.574 0.0422759 115.976 0.0422759C108.377 0.0422759 103.465 5.67902 103.465 13.9603C103.465 22.2417 108.345 27.8947 115.976 27.8947C121.72 27.8947 125.748 25.1722 127.504 20.143L122.718 18.9149C121.849 24.1845 119.449 26.5172 115.976 26.5172C111.559 26.5172 108.869 22.7875 108.869 13.9636C108.869 13.9312 108.869 13.8986 108.869 13.8629H128ZM115.976 1.40672C120.106 1.40672 122.268 4.48672 122.531 12.2872H108.908C109.236 4.66537 111.85 1.40672 115.976 1.40672ZM91.4012 11.7739L88.6211 10.9876C85.0569 9.99024 83.3589 8.24239 83.3589 6.04293C83.3589 3.48932 85.6855 1.40997 88.1902 1.40997C91.4855 1.40997 93.5949 3.41127 94.2235 8.13192L98.6044 7.0078C97.7132 2.47566 93.3778 0.0260154 88.1999 0.0260154C84.0426 0.0260154 79.7266 2.95003 79.7266 7.59588C79.7266 11.2476 82.1989 14.0319 86.9556 15.3932L89.726 16.1793C93.1284 17.1248 95.7496 18.4991 95.7496 21.293C95.7496 23.9701 93.245 26.5172 89.9172 26.5172C86.4436 26.5172 83.9001 24.2138 83.1742 18.9149L78.6055 20.0877C79.5775 25.1267 84.1723 27.885 89.9172 27.885C95.5034 27.898 99.638 24.1326 99.638 19.5744C99.638 15.0163 96.3686 13.1904 91.4012 11.7739ZM12.151 0.0260154C9.02736 0.0260154 6.60041 1.56271 4.96732 2.98894V0.597831H0V40H4.9738V24.9351C6.59393 26.3613 9.03061 27.898 12.1575 27.898C19.7008 27.898 24.3441 22.245 24.3441 13.9636C24.3441 5.68228 19.7008 0.0260154 12.151 0.0260154ZM11.9566 26.2704C9.33195 26.2704 6.36063 24.6459 4.96732 22.5796V5.35415C6.36711 3.2619 9.35787 1.65041 11.963 1.65041C16.1754 1.65041 18.9069 5.13648 18.9069 13.9603C18.9069 22.7843 16.1624 26.2736 11.963 26.2736L11.9566 26.2704ZM47.8424 4.6491C47.3111 4.6491 46.7829 4.36 46.0992 3.72325L44.2911 2.04032C42.4831 0.357398 41.6989 0 40.5583 0C39.4177 0 38.2901 0.737452 36.9616 2.10526C35.9925 3.0761 35.1079 4.12824 34.3176 5.25019V0.597831H29.3438V27.3262H34.3176V7.47241C35.8502 5.38341 37.3505 3.8077 38.9544 3.8077C39.8876 3.8077 40.3639 4.19425 41.4948 5.24368L43.3028 6.92661C44.3624 7.90125 44.8776 8.40152 45.9469 8.40152C47.3467 8.40152 49.1159 5.63675 49.6991 4.43469L49.09 3.96358C48.9424 4.16011 48.755 4.32293 48.5399 4.44119C48.3248 4.55935 48.087 4.63024 47.8424 4.6491ZM62.6537 0.0260154C55.0229 0.0260154 50.143 5.67902 50.143 13.9603C50.143 22.2417 55.0229 27.8947 62.6537 27.8947C70.2845 27.8947 75.1676 22.2482 75.1676 13.9603C75.1676 5.67252 70.2845 0.0260154 62.6537 0.0260154ZM62.6537 26.5139C58.221 26.5139 55.4894 22.8168 55.4894 13.9603C55.4894 5.10396 58.221 1.40672 62.6537 1.40672C67.0863 1.40672 69.7822 5.10396 69.7822 13.9603C69.7822 22.8168 67.0896 26.5172 62.6537 26.5172V26.5139Z" fill="#323429"/>
</svg>
