<svg width="157" height="24" viewBox="0 0 157 24" fill="none" xmlns="http://www.w3.org/2000/svg">
<path d="M22.7063 4.80064V0H4.71019C3.46097 0 2.26291 0.502098 1.37958 1.39584C0.496251 2.28958 0 3.50176 0 4.7657V9.63624C0 10.9002 0.496251 12.1124 1.37958 13.0061C2.26291 13.8999 3.46097 14.402 4.71019 14.402H18.9758V19.1994H0.339134V24H19.0104C20.2595 24 21.4576 23.4979 22.3409 22.6042C23.2242 21.7105 23.7205 20.4982 23.7205 19.2344V14.367C23.7205 13.103 23.2242 11.8909 22.3409 10.9971C21.4576 10.1034 20.2595 9.6013 19.0104 9.6013H4.74473V4.80064H22.7063Z" fill="#191914"/>
<path d="M27.608 4.7657V19.2344C27.608 20.4982 28.1043 21.7105 28.9876 22.6042C29.8709 23.4979 31.069 24 32.3181 24H46.6183C47.8675 24 49.0656 23.4979 49.9489 22.6042C50.8322 21.7105 51.3285 20.4982 51.3285 19.2344V4.7657C51.3285 3.50176 50.8322 2.28958 49.9489 1.39584C49.0656 0.502098 47.8675 0 46.6183 0H32.3181C31.069 0 29.8709 0.502098 28.9876 1.39584C28.1043 2.28958 27.608 3.50176 27.608 4.7657ZM46.5838 19.1994H32.3432V4.80064H46.5743L46.5838 19.1994Z" fill="#191914"/>
<path d="M78.0697 4.7657V24H82.8146V16.1144H96.7128V24H101.454V4.7657C101.454 3.50176 100.958 2.28958 100.075 1.39584C99.1915 0.502098 97.9933 0 96.7441 0H82.78C81.5307 0 80.3328 0.502098 79.4494 1.39584C78.566 2.28958 78.0697 3.50176 78.0697 4.7657ZM96.7128 11.3138H82.8176V4.80064H96.7158L96.7128 11.3138Z" fill="#191914"/>
<path d="M133.625 4.7657V24H138.36V16.1144H152.255V24H157V4.7657C157 3.50176 156.504 2.28958 155.621 1.39584C154.737 0.502098 153.539 0 152.29 0H138.336C137.086 0 135.888 0.502098 135.005 1.39584C134.121 2.28958 133.625 3.50176 133.625 4.7657ZM152.262 11.3138H138.36V4.80064H152.255L152.262 11.3138Z" fill="#191914"/>
<path d="M124.663 0V19.1994H122.779L115.959 1.99842C115.726 1.40886 115.324 0.903391 114.804 0.547191C114.285 0.190992 113.672 0.000401795 113.045 0H108.821C107.988 0 107.19 0.334733 106.601 0.930561C106.012 1.52639 105.681 2.3345 105.681 3.17713V24H110.413V4.80064H112.313L119.114 22.0048C119.348 22.5943 119.751 23.0994 120.271 23.4551C120.791 23.8107 121.404 24.0006 122.032 24H126.255C127.088 24 127.887 23.6653 128.475 23.0695C129.064 22.4736 129.395 21.6655 129.395 20.8229V0H124.663Z" fill="#191914"/>
<path d="M60.2904 19.1994V0H55.552V19.2344C55.552 20.4982 56.0482 21.7105 56.9315 22.6042C57.8148 23.4979 59.0129 24 60.2622 24H74.5277V19.1994H60.2904Z" fill="#191914"/>
</svg>
