<svg width="98" height="48" viewBox="0 0 98 48" fill="none" xmlns="http://www.w3.org/2000/svg">
<path d="M13.1123 47.8894C12.2413 48.1833 11.951 47.8309 11.8348 47.537C11.7185 47.1847 11.8929 46.715 12.4152 46.48C12.4152 46.48 41.2142 31.9154 41.6207 31.6804C42.0272 31.4453 42.1434 31.3864 42.3174 31.2103C42.4336 31.0929 42.5499 30.9168 42.5499 30.6822C42.5499 30.3294 42.3755 30.0948 41.969 29.977C41.969 29.977 24.8986 26.0423 24.7246 25.9834C24.3181 25.8661 24.0279 25.7484 24.086 25.3376C24.086 25.1614 24.2023 24.9852 24.6083 24.9264H74.3678C75.4128 24.9264 76.2258 25.1026 76.3421 25.9246C76.516 26.8059 75.7035 27.2755 73.9032 27.9214L13.1123 47.8894ZM94.4751 9.5224L93.1479 17.2984C92.9401 18.5873 92.36 19.6269 91.1989 20.4167C90.1205 21.1238 89.2908 21.2069 87.9636 21.2069H82.8628C81.6599 21.2069 80.7475 21.2069 79.7935 20.4167C79.088 19.7931 78.7982 19.0864 78.7982 18.2131C78.7982 17.8805 78.8398 17.6309 78.8812 17.1319L80.2497 9.56395C80.7475 8.0255 80.9961 7.11072 82.1992 6.36215C83.3603 5.61348 84.1065 5.53038 85.5163 5.53038H90.6597C91.779 5.53038 92.7322 5.53038 93.6045 6.3206C94.309 6.98582 94.5577 7.6925 94.5577 8.60763C94.5577 8.89873 94.516 9.18984 94.4751 9.5224ZM90.9911 8.64918C90.4936 8.19161 90.037 8.19162 89.3317 8.19162H85.7241C84.19 8.19162 83.2768 8.85684 83.0281 10.2706L81.9502 16.5497C81.9084 16.7577 81.9084 16.8823 81.9084 17.0899C81.9084 17.506 82.0331 17.839 82.4062 18.13C82.9037 18.5457 83.3185 18.5457 83.9404 18.5457H87.7566C88.4611 18.5457 88.7933 18.5457 89.3734 18.1297C89.9953 17.7145 90.2449 17.2984 90.3275 16.5912L91.4059 10.2706C91.4477 10.0631 91.4477 9.93807 91.4477 9.73041C91.4477 9.3144 91.3224 8.94028 90.9911 8.64918ZM13.3958 8.19162H6.88446C6.17931 8.19162 5.80612 8.15007 5.22568 8.52418C4.3546 8.98174 4.14736 9.85497 4.14736 10.7282C4.14736 11.8925 5.22568 11.9755 6.26236 11.9755H10.1195C12.1931 11.9755 13.3544 13.2233 13.3544 15.0943C13.3544 15.926 13.1055 16.7577 12.9808 17.5475C12.8149 18.5457 12.2344 19.5019 11.405 20.1676C10.368 21.0823 9.58028 21.2484 8.17006 21.2484H0L0.497474 18.5457H7.87984C9.70456 18.5457 10.2437 17.4229 10.2437 15.926C10.2437 14.9282 9.58028 14.6787 8.5849 14.6787H4.97675C2.94436 14.6787 1.11962 13.7636 1.11962 11.726C1.11962 10.8528 1.36856 9.93807 1.53451 9.06527C1.74176 7.94206 2.52987 6.86117 3.56691 6.1956C4.47888 5.61348 5.43293 5.53038 6.55259 5.53038H13.8932L13.3958 8.19162ZM30.2337 9.60542C29.7775 12.1836 29.3213 14.7202 28.9068 17.2984C28.492 19.585 26.4596 21.2069 23.8879 21.2069H16.9209L15.9256 26.7789H13.0226L15.9669 9.68852C16.4231 7.06883 18.0406 5.53038 21.0266 5.53038H26.294C28.5332 5.53038 30.3579 6.27905 30.3579 8.56616C30.3579 8.89873 30.3167 9.27285 30.2337 9.60542ZM21.5657 8.19204C19.9899 8.19204 19.0363 8.89916 18.787 10.3126L17.5018 17.8809C17.4188 18.3381 17.7507 18.5461 18.1656 18.5461H23.5986C25.0084 18.5461 25.8795 17.7975 26.128 16.5506L27.248 10.313C27.2893 10.105 27.2893 9.97996 27.2893 9.77239C27.2893 9.35629 27.165 8.98217 26.8332 8.69107C26.3357 8.23351 25.8791 8.23351 25.1744 8.23351L21.5657 8.19204ZM62.7066 17.1742C63.1632 14.5957 63.619 12.0594 64.0338 9.48128C64.4488 7.19425 66.4807 5.57236 69.0519 5.57236H76.0197L77.0143 0H79.9173L76.973 17.0904C76.5164 19.71 74.8993 21.2484 71.9133 21.2484H66.6463C64.4067 21.2484 62.582 20.5002 62.582 18.2127C62.6236 17.8805 62.6649 17.506 62.7062 17.1734L62.7066 17.1742ZM71.3745 18.5876C72.9503 18.5876 73.9044 17.8809 74.1533 16.4671L75.4389 8.94028C75.5218 8.48306 75.19 8.27506 74.7754 8.27506H69.3425C67.9323 8.27506 67.0612 9.02372 66.8126 10.2711L65.6926 16.5086C65.651 16.7166 65.651 16.8412 65.651 17.0488C65.651 17.4649 65.7753 17.839 66.1076 18.1305C66.6054 18.5876 67.0612 18.5876 67.7663 18.5876H71.3745ZM61.0478 14.6787C61.2555 13.5974 62.0019 9.5224 62.0019 8.44117C62.0019 6.32059 60.3844 5.57193 58.3107 5.57193H53.251C50.3479 5.57193 48.4815 6.81971 48.0253 9.56395L46.7397 16.9658C46.6568 17.381 46.6568 17.797 46.6568 18.2131C46.6568 19.0864 46.9057 19.7515 47.6108 20.3337C48.6062 21.1654 49.6015 21.2069 50.8866 21.2069H59.9282L60.384 18.5042H51.8824C51.219 18.5042 50.7211 18.5873 50.2232 18.13C49.8087 17.797 49.7675 17.5479 49.7675 17.0488C49.7675 16.6747 50.0573 15.0528 50.0989 14.6368H61.0474L61.0478 14.6787ZM50.7628 10.1876C51.0121 8.64918 52.2143 8.19204 53.7493 8.19204H56.9009C57.8549 8.19204 58.9333 8.48272 58.9333 9.5224C58.9333 9.68852 58.7673 10.8947 58.6426 11.6845C58.56 12.2667 58.3524 12.3082 57.8962 12.3082H50.4726L50.7628 10.1876ZM45.1643 14.6787C45.3716 13.5974 46.118 9.5224 46.118 8.44117C46.118 6.32059 44.5005 5.57193 42.4272 5.57193H37.3671C34.464 5.57193 32.5976 6.81971 32.1414 9.56395L30.8558 16.9658C30.7728 17.381 30.7728 17.797 30.7728 18.2131C30.7728 19.0864 31.0214 19.7515 31.7269 20.3337C32.7219 21.1654 33.7172 21.2069 35.0027 21.2069H44.0439L44.5001 18.5042H35.9981C35.3347 18.5042 34.8372 18.5873 34.3393 18.13C33.9248 17.797 33.8832 17.5479 33.8832 17.0488C33.8832 16.6747 34.1734 15.0528 34.215 14.6368H45.1639L45.1643 14.6787ZM34.8785 10.1876C35.127 8.64918 36.3301 8.19204 37.8646 8.19204H41.0166C41.9706 8.19204 43.049 8.48272 43.049 9.5224C43.049 9.68852 42.883 10.8947 42.7583 11.6845C42.6753 12.2667 42.4681 12.3082 42.0119 12.3082H34.5879L34.8785 10.1876ZM96.6311 4.78176L96.4658 4.49069C96.3824 4.36612 96.2997 4.20001 96.2171 4.11656C96.1336 4.03351 96.0919 4.03351 95.9266 4.03351H95.8431V4.78176H95.47V2.95226H96.3824C96.7555 2.95226 96.9633 3.16029 96.9633 3.45136C96.9633 3.74244 96.7555 3.90854 96.4658 3.95047C96.6311 3.99199 96.6728 4.03351 96.8389 4.36612L97.0459 4.74023H96.6311V4.78176ZM96.258 3.74244C96.5067 3.74244 96.5893 3.61746 96.5893 3.49289C96.5893 3.32639 96.4658 3.24334 96.2171 3.24334H95.8849V3.74244H96.258ZM94.8899 3.86742C94.8899 4.61566 95.5118 5.23934 96.258 5.23934C97.0051 5.23934 97.6269 4.61566 97.6269 3.86701C97.6269 3.11877 97.0051 2.4951 96.2171 2.4951C95.5118 2.45317 94.8899 3.07765 94.8899 3.86742ZM98 3.86742C98 4.82369 97.2538 5.57193 96.258 5.61348C95.3039 5.61348 94.516 4.82328 94.5577 3.90854C94.5577 2.95226 95.3457 2.20402 96.2997 2.20402C97.2538 2.12057 98 2.91114 98 3.86742Z" fill="#EE3224"/>
</svg>
